<?xml version="1.0" standalone="no"?>
<!DOCTYPE svg PUBLIC "-//W3C//DTD SVG 20010904//EN"
 "http://www.w3.org/TR/2001/REC-SVG-20010904/DTD/svg10.dtd">
<svg version="1.0" xmlns="http://www.w3.org/2000/svg"
 width="1198.000000pt" height="1194.000000pt" viewBox="0 0 1198.000000 1194.000000"
 preserveAspectRatio="xMidYMid meet">
<metadata>
Created by potrace 1.16, written by Peter Selinger 2001-2019
</metadata>
<g transform="translate(0.000000,1194.000000) scale(0.100000,-0.100000)"
fill="#000000" stroke="none">
<path d="M160 5930 l0 -5800 5850 0 5850 0 0 5800 0 5800 -5850 0 -5850 0 0
-5800z m11540 0 l0 -5640 -5690 0 -5690 0 0 5633 c0 3099 3 5637 7 5640 3 4
2564 7 5690 7 l5683 0 0 -5640z"/>
<path d="M873 11504 c-59 -21 -127 -85 -158 -149 -36 -72 -38 -167 -5 -242 26
-61 99 -134 153 -154 l37 -13 0 -1330 0 -1331 1048 1048 1047 1047 2018 0
2017 0 0 268 0 268 37 13 c53 20 127 93 152 152 25 57 29 144 11 207 -19 61
-78 131 -140 166 -50 28 -63 31 -140 31 -77 0 -90 -3 -140 -31 -61 -34 -121
-105 -139 -164 -19 -64 -14 -159 13 -215 27 -58 97 -127 149 -146 l37 -13 0
-188 0 -188 -1972 0 -1973 0 -932 -932 -933 -933 0 1136 0 1135 37 13 c55 20
136 106 156 165 68 198 -70 397 -273 395 -36 0 -84 -7 -107 -15z m174 -164
c109 -66 64 -240 -62 -240 -87 0 -135 47 -135 132 0 100 111 161 197 108z
m5964 -25 c65 -34 88 -126 49 -190 -48 -78 -183 -75 -225 5 -20 38 -19 110 1
139 40 56 116 76 175 46z"/>
<path d="M7767 11476 c-155 -56 -234 -223 -180 -382 20 -59 101 -145 156 -165
l37 -13 0 -473 0 -473 -1887 0 -1888 -1 -325 -318 c-304 -298 -327 -318 -350
-309 -152 58 -317 -11 -382 -160 -24 -54 -26 -162 -5 -214 l15 -35 -557 -557
-557 -557 -43 16 c-142 50 -291 -13 -367 -155 -14 -26 -19 -56 -19 -120 0 -73
4 -92 27 -136 93 -177 329 -213 471 -71 78 78 104 189 69 292 l-21 60 553 554
554 554 43 -17 c62 -25 164 -23 226 4 89 39 154 122 171 217 10 58 8 84 -15
157 l-16 49 295 293 294 294 1937 0 1937 0 0 550 0 550 45 21 c149 70 213 246
142 391 -34 69 -101 131 -164 152 -56 19 -144 20 -196 2z m184 -182 c118 -113
-21 -290 -163 -206 -53 31 -73 113 -43 173 39 73 146 91 206 33z m-4639 -2132
c26 -25 32 -41 36 -86 4 -54 3 -57 -36 -96 -35 -35 -45 -40 -87 -40 -85 0
-135 50 -135 135 0 42 5 52 40 87 39 39 42 40 96 36 45 -4 61 -10 86 -36z
m-1546 -1488 c44 -21 79 -90 70 -140 -4 -19 -20 -49 -35 -66 -23 -26 -37 -32
-84 -36 -65 -5 -96 10 -127 61 -69 113 53 239 176 181z"/>
<path d="M8665 11462 c-110 -53 -169 -147 -168 -267 0 -117 57 -206 163 -260
l50 -25 0 -760 0 -760 -32 0 c-29 0 -35 5 -51 44 -79 193 -323 241 -474 94
-23 -23 -51 -63 -63 -90 l-21 -48 -1877 0 -1877 0 -1249 -1249 -1248 -1248
-49 18 c-143 55 -308 -16 -371 -159 -28 -62 -27 -163 1 -227 34 -77 66 -111
137 -146 56 -28 78 -33 133 -32 89 0 158 31 215 94 72 80 95 192 61 290 l-16
43 1228 1228 1228 1228 1847 0 1846 0 22 -45 c28 -58 99 -120 162 -141 66 -22
167 -15 226 15 54 28 118 93 134 137 l12 34 118 0 118 0 0 843 0 843 37 13
c57 21 137 107 158 170 35 107 7 228 -70 306 -56 55 -109 78 -195 82 -67 4
-82 1 -135 -25z m192 -152 c130 -79 39 -279 -109 -239 -76 20 -117 128 -73
195 39 61 122 81 182 44z m-437 -1870 c63 -33 89 -127 51 -187 -69 -109 -241
-65 -241 62 0 25 7 59 15 75 30 57 114 81 175 50z m-6695 -2684 c51 -22 77
-69 72 -130 -9 -98 -107 -147 -199 -100 -36 19 -58 63 -58 116 0 50 19 81 64
109 37 23 74 24 121 5z"/>
<path d="M9417 11476 c-155 -56 -234 -223 -180 -382 20 -59 101 -145 156 -165
l37 -13 0 -1073 0 -1073 -1502 0 -1503 0 -18 45 c-24 57 -102 128 -164 149
-59 20 -137 20 -196 0 -60 -20 -132 -84 -163 -145 l-24 -49 -638 0 -637 0
-1376 -1376 -1376 -1376 -57 17 c-223 65 -430 -166 -347 -387 25 -65 81 -127
143 -159 59 -30 160 -37 226 -15 69 23 143 91 173 158 31 71 32 175 2 234
l-22 40 1352 1352 1352 1352 601 0 602 0 26 -54 c50 -103 143 -160 261 -160
119 -1 219 64 267 171 l19 43 1579 0 1580 0 0 1150 0 1150 45 21 c149 70 213
246 142 391 -34 69 -101 131 -164 152 -56 19 -144 20 -196 2z m183 -181 c80
-76 49 -202 -55 -225 -146 -33 -228 162 -102 241 46 29 118 22 157 -16z
m-3363 -2518 c42 -46 51 -94 27 -143 -27 -53 -62 -76 -118 -76 -54 0 -89 19
-116 65 -80 130 104 266 207 154z m-4487 -2903 c138 -55 98 -254 -52 -254 -91
0 -156 107 -114 188 19 36 48 61 82 72 40 12 39 12 84 -6z"/>
<path d="M10190 11473 c-28 -10 -66 -37 -102 -73 -45 -45 -60 -69 -74 -115
-39 -137 19 -281 141 -346 l45 -24 0 -777 0 -777 -44 -19 c-61 -28 -120 -84
-150 -145 -33 -65 -36 -179 -7 -243 28 -62 86 -120 147 -149 l54 -26 0 -1028
0 -1028 -43 -17 c-64 -24 -112 -70 -146 -138 -41 -82 -43 -176 -5 -258 l25
-54 -848 -848 -848 -848 -542 0 -543 0 0 -765 0 -765 1210 0 1210 0 0 -665 0
-665 -1507 0 -1508 0 -251 -251 -251 -251 -52 18 c-36 11 -71 15 -114 12 -105
-9 -185 -61 -233 -153 l-29 -55 -2317 0 -2316 0 -12 34 c-16 49 -80 117 -136
146 -41 21 -63 25 -134 25 -75 0 -91 -3 -138 -30 -64 -35 -97 -71 -130 -144
-33 -73 -29 -186 10 -252 61 -102 149 -153 263 -152 41 0 86 8 108 17 54 24
125 92 153 148 l24 48 2314 0 2314 0 12 -35 c6 -19 31 -56 55 -83 142 -158
399 -114 486 82 27 62 28 153 4 214 l-18 44 229 229 229 229 1555 2 1555 3 3
743 2 742 544 0 544 0 23 -46 c30 -62 81 -111 147 -142 47 -21 64 -24 131 -20
93 6 142 29 203 97 71 79 94 176 64 275 -31 102 -105 172 -214 202 -51 14 -70
15 -118 6 -98 -20 -182 -87 -219 -175 l-15 -37 -1760 0 -1760 0 0 605 0 605
497 0 498 0 880 880 880 879 45 -10 c193 -45 387 138 350 331 -5 28 -18 68
-27 88 -23 48 -95 118 -138 134 l-35 12 0 1038 0 1038 33 14 c116 48 188 188
165 319 -17 91 -85 180 -165 213 l-33 14 0 779 0 778 43 17 c64 24 122 78 154
144 39 80 40 184 1 258 -34 64 -104 128 -165 148 -58 20 -144 19 -203 -1z
m197 -186 c42 -46 51 -94 27 -143 -27 -53 -64 -77 -118 -77 -52 0 -89 21 -116
66 -80 130 104 266 207 154z m-26 -2126 c35 -35 39 -44 39 -91 0 -47 -4 -56
-39 -91 -34 -34 -44 -39 -86 -39 -83 0 -135 50 -135 130 0 80 51 129 134 130
43 0 53 -4 87 -39z m-24 -2611 c60 -36 82 -115 50 -177 -46 -89 -187 -90 -233
-2 -45 88 19 199 116 199 19 0 49 -9 67 -20z m945 -3327 c116 -58 66 -243 -65
-243 -73 0 -121 43 -132 117 -8 55 19 102 74 130 46 23 71 23 123 -4z m-10381
-2189 c16 -15 34 -46 40 -67 9 -33 7 -45 -13 -85 -26 -53 -61 -75 -118 -75
-132 0 -179 174 -67 244 46 29 118 22 158 -17z m5170 21 c82 -43 93 -186 18
-226 -70 -37 -130 -28 -178 27 -93 105 34 264 160 199z"/>
<path d="M10957 11476 c-156 -56 -234 -222 -180 -382 20 -59 101 -145 156
-165 l37 -13 0 -2426 0 -2426 -43 -21 c-66 -32 -103 -69 -136 -135 -36 -72
-42 -161 -15 -229 l17 -41 -879 -879 -879 -879 -506 0 -505 0 -17 38 c-25 57
-70 105 -128 137 -47 26 -64 30 -134 30 -92 0 -148 -22 -209 -81 -64 -62 -81
-106 -81 -209 0 -109 18 -149 96 -219 145 -130 373 -82 457 97 l22 47 538 0
537 0 901 901 902 902 41 -17 c63 -25 165 -21 226 8 190 90 228 341 73 481
-27 24 -64 49 -83 55 l-35 12 0 2424 0 2424 45 21 c148 69 212 247 142 392
-34 67 -101 130 -164 151 -56 19 -144 20 -196 2z m183 -181 c41 -39 54 -83 40
-134 -18 -67 -70 -99 -150 -92 -85 8 -136 111 -95 192 38 73 146 91 205 34z
m-6 -5416 c36 -31 59 -87 49 -117 -26 -83 -62 -112 -137 -112 -127 0 -173 173
-63 240 50 31 109 26 151 -11z m-3341 -1960 c56 -29 67 -49 67 -119 0 -76 -15
-105 -66 -126 -43 -18 -68 -18 -110 2 -69 33 -95 125 -54 192 32 53 112 77
163 51z"/>
<path d="M3869 6834 l-865 -865 -68 22 c-60 20 -74 21 -128 11 -184 -34 -294
-222 -229 -391 l18 -49 -362 -362 -362 -362 -62 22 c-191 70 -384 -52 -399
-252 -12 -170 118 -312 287 -312 82 0 128 15 190 64 88 69 130 199 98 301
l-14 47 371 371 372 372 43 -16 c109 -38 230 -7 310 81 77 84 98 174 65 284
l-16 53 844 844 843 843 2312 0 2313 0 0 -329 0 -329 -46 -23 c-56 -27 -106
-75 -136 -132 -33 -62 -32 -184 1 -256 l25 -52 -548 -548 -547 -547 -57 19
c-102 34 -212 7 -292 -73 -59 -59 -84 -119 -84 -205 0 -91 29 -160 94 -218
195 -176 505 -27 487 233 -2 36 -11 79 -19 95 l-16 29 551 556 c469 472 555
555 577 552 96 -10 167 -5 211 15 149 67 217 250 146 395 -31 64 -81 112 -144
140 l-43 19 0 409 0 410 -2428 0 -2427 0 -866 -866z m5732 -140 c57 -55 59
-131 4 -190 -41 -43 -112 -51 -163 -18 -82 54 -80 168 4 226 42 28 115 20 155
-18z m-6664 -879 c26 -18 53 -71 53 -106 0 -36 -32 -90 -64 -110 -113 -69
-251 55 -191 171 38 74 127 94 202 45z m5170 -640 c13 -9 33 -30 43 -48 69
-113 -64 -246 -177 -177 -45 27 -66 64 -66 116 0 103 113 165 200 109z m-6311
-498 c43 -46 52 -94 28 -143 -27 -53 -64 -77 -118 -77 -52 0 -89 21 -116 66
-24 38 -25 75 -6 122 35 83 150 100 212 32z"/>
<path d="M887 7366 c-88 -32 -158 -103 -187 -189 -17 -53 -9 -172 15 -222 26
-53 87 -113 141 -136 l44 -20 0 -1764 0 -1765 693 0 692 0 1455 1455 1455
1455 742 0 743 0 24 -39 c33 -51 90 -97 145 -116 53 -18 144 -20 192 -3 56 19
120 68 148 114 l26 43 148 1 147 0 0 -380 0 -380 -458 0 -457 0 -17 48 c-19
54 -83 124 -143 155 -58 31 -202 31 -260 0 -53 -28 -110 -86 -135 -138 -60
-123 -19 -284 90 -360 l40 -28 0 -1073 0 -1074 -1392 0 -1393 0 935 935 c514
514 936 935 937 935 2 0 3 -256 3 -570 l0 -569 -30 -16 c-51 -26 -100 -76
-128 -129 -38 -75 -38 -179 1 -258 53 -107 144 -163 267 -162 61 0 85 5 126
27 134 68 195 221 147 363 -23 69 -114 159 -177 176 l-46 12 -2 758 -3 758
-1210 -1210 -1210 -1210 1667 0 1668 0 2 1136 3 1136 60 19 c73 22 132 70 166
133 l24 46 542 0 543 0 0 545 0 545 -214 0 -214 0 -18 52 c-22 67 -89 139
-157 169 -160 71 -360 -25 -401 -193 l-6 -28 -763 0 -762 0 -1460 -1460 -1460
-1460 -578 0 -577 0 0 1686 0 1685 36 15 c55 23 129 98 154 156 28 66 25 181
-7 243 -67 129 -227 197 -356 151z m148 -160 c98 -41 99 -193 2 -239 -43 -21
-67 -21 -111 -3 -48 20 -76 64 -76 120 0 102 90 161 185 122z m5958 -780 c55
-22 87 -70 87 -127 0 -42 -5 -55 -33 -86 -29 -31 -41 -37 -89 -41 -53 -4 -56
-3 -96 35 -38 36 -42 45 -42 87 0 64 23 104 73 127 51 22 58 23 100 5z m-615
-956 c59 -36 78 -118 42 -177 -32 -52 -65 -67 -143 -64 -40 1 -93 57 -102 105
-10 48 18 112 60 137 40 25 102 24 143 -1z m-949 -1948 c102 -55 86 -206 -25
-242 -104 -35 -206 79 -158 177 37 74 114 102 183 65z"/>
<path d="M11017 5250 c-62 -16 -112 -47 -155 -95 -54 -62 -76 -128 -70 -214 8
-108 65 -194 162 -240 l46 -23 0 -319 0 -319 -49 -24 c-62 -32 -125 -104 -147
-168 -76 -230 153 -454 376 -369 67 26 111 60 148 117 100 150 35 360 -133
430 l-35 14 0 319 0 319 54 26 c103 51 159 143 159 261 0 152 -113 276 -263
289 -30 3 -72 1 -93 -4z m132 -172 c15 -8 36 -34 50 -61 21 -42 22 -53 13 -86
-34 -113 -181 -136 -243 -38 -27 43 -21 117 12 154 48 51 102 61 168 31z m29
-1231 c66 -70 39 -182 -51 -216 -40 -16 -67 -14 -106 7 -63 34 -91 128 -54
182 29 43 45 49 119 50 61 0 73 -3 92 -23z"/>
<path d="M2283 2663 c-59 -20 -137 -93 -160 -148 l-18 -45 -602 0 -603 0 0
-500 0 -500 2152 0 2153 0 420 420 421 420 1496 0 1497 0 32 -60 c56 -105 138
-154 259 -154 93 0 149 25 213 93 58 62 81 131 75 220 -12 164 -145 280 -309
268 -110 -7 -220 -84 -249 -173 l-12 -34 -1533 0 -1534 0 -412 -415 -412 -415
-2049 0 -2048 0 2 333 3 332 517 3 517 2 19 -43 c28 -63 76 -113 140 -144 147
-72 328 -6 394 144 l19 43 1014 0 1015 0 20 -40 c31 -61 87 -118 144 -148 42
-21 65 -26 126 -26 90 0 148 23 205 79 142 142 109 373 -66 470 -48 27 -63 30
-139 30 -69 0 -93 -5 -128 -23 -55 -29 -113 -90 -137 -141 l-18 -41 -1021 0
-1021 0 -18 45 c-24 57 -102 128 -164 149 -57 20 -144 19 -200 -1z m194 -186
c42 -46 51 -94 27 -143 -27 -53 -64 -77 -118 -77 -80 0 -141 63 -133 139 12
116 147 165 224 81z m2571 29 c61 -32 88 -97 67 -160 -18 -51 -41 -74 -88 -87
-84 -22 -167 39 -167 124 0 101 102 168 188 123z m4337 0 c19 -8 44 -30 55
-48 72 -118 -59 -251 -183 -186 -51 26 -75 138 -41 187 23 32 74 61 107 61 15
0 43 -6 62 -14z"/>
<path d="M7057 1216 c-90 -33 -158 -104 -188 -194 -19 -57 -7 -172 24 -223 60
-102 148 -153 262 -152 51 0 83 6 117 22 57 27 130 104 149 154 l13 37 1746 0
1746 0 21 -44 c54 -110 149 -171 268 -170 119 0 210 57 262 162 76 155 -6 354
-169 408 -65 21 -167 15 -223 -14 -49 -25 -121 -100 -141 -148 l-14 -34 -1749
0 -1749 0 -12 34 c-16 49 -80 117 -136 146 -60 30 -169 38 -227 16z m184 -182
c16 -15 34 -46 40 -67 9 -33 7 -45 -13 -85 -26 -53 -61 -75 -118 -75 -132 0
-179 174 -67 244 46 29 118 22 158 -17z m4059 1 c80 -77 50 -201 -55 -225 -74
-17 -147 30 -160 103 -9 46 19 111 58 137 46 30 117 23 157 -15z"/>
</g>
</svg>
