 <svg version="1.0" xmlns="http://www.w3.org/2000/svg"  
    width="400.000000pt" height="400.000000pt" 
    viewBox="0 0 400.000000 400.000000"  
    preserveAspectRatio="xMidYMid meet">  
    <g transform="translate(0.000000,450.000000) scale(0.150000,-0.1500000)" 
    fill="#ffffff" stroke="none"> <path d="M530 1605 l0 -995 1005 0 1005 0 0 995 0 995 -1005 0 -1005 0 0 -995z m1980 -2 l0 -968 -972 2 -973 3 -3 965 -2 965 975 0 975 0 0 -967z"/> <path d="M634 2534 c-16 -24 -16 -26 5 -54 20 -28 21 -40 21 -252 l0 -223 178 178 177 177 348 0 347 0 0 48 c0 36 5 50 20 60 22 14 27 51 8 70 -7 7 -24 12 -38 12 -14 0 -31 -5 -38 -12 -17 -17 -15 -53 3 -68 8 -7 15 -28 15 -46 l0 -34 -337 0 -338 0 -157 -157 -158 -158 0 198 c0 120 4 197 10 197 5 0 14 9 20 21 9 16 8 26 -5 45 -21 32 -59 32 -81 -2z m64 -21 c5 -17 -26 -29 -40 -15 -6 6 -7 15 -3 22 9 14 37 9 43 -7z m1019 1 c9 -23 -13 -40 -32 -24 -12 10 -13 16 -4 26 15 18 28 18 36 -2z"/> <path d="M1809 2529 c-12 -23 2 -69 21 -69 6 0 10 -34 10 -85 l0 -85 -328 0 -328 0 -49 -50 c-34 -34 -57 -50 -75 -50 -33 0 -50 -17 -50 -50 0 -37 -174 -210 -211 -210 -34 0 -51 -21 -47 -57 4 -39 49 -55 78 -28 12 11 20 28 18 42 -4 34 174 212 206 206 30 -6 59 23 53 53 -3 17 9 35 48 74 l51 51 332 -3 332 -3 0 93 c0 79 3 95 20 112 11 11 20 26 20 34 0 44 -80 63 -101 25z m69 -22 c4 -20 -25 -34 -40 -19 -15 15 -1 44 19 40 10 -2 19 -11 21 -21z m-798 -367 c0 -13 -7 -20 -20 -20 -13 0 -20 7 -20 20 0 13 7 20 20 20 13 0 20 -7 20 -20z m-260 -260 c0 -13 -7 -20 -20 -20 -13 0 -20 7 -20 20 0 13 7 20 20 20 13 0 20 -7 20 -20z"/> <path d="M1969 2529 c-12 -23 2 -69 21 -69 6 0 10 -50 9 -137 0 -128 -1 -136 -16 -115 -19 27 -68 30 -84 5 -10 -17 -35 -18 -327 -15 l-316 3 -216 -215 c-188 -188 -219 -215 -250 -218 -27 -2 -37 -9 -44 -30 -17 -50 42 -89 78 -52 9 8 16 25 16 38 0 15 63 85 213 234 l212 212 311 0 c298 0 312 -1 329 -20 10 -11 26 -20 35 -20 9 0 25 9 35 20 10 11 26 20 37 20 17 0 18 11 18 144 0 115 3 146 15 156 18 15 20 51 3 68 -20 20 -66 14 -79 -9z m64 -11 c6 -19 -3 -38 -18 -38 -18 0 -28 17 -21 35 7 18 33 20 39 3z m-78 -334 c0 -10 -8 -20 -17 -22 -18 -3 -26 27 -11 42 12 11 28 0 28 -20z m-1148 -445 c14 -14 6 -39 -12 -39 -18 0 -28 17 -21 35 6 18 18 19 33 4z"/> <path d="M2102 2538 c-17 -17 -15 -53 3 -68 12 -10 15 -45 15 -196 l0 -184 -250 0 c-242 0 -252 1 -280 22 l-30 22 -30 -22 c-26 -19 -42 -22 -132 -22 l-103 0 -235 -235 c-188 -188 -240 -235 -261 -235 -34 0 -51 -21 -47 -57 4 -39 49 -55 78 -28 12 11 20 28 18 42 -2 18 44 70 227 253 l230 230 98 0 c85 0 102 -3 127 -22 l30 -22 30 22 c28 21 37 22 295 22 l265 0 0 200 c0 129 4 200 10 200 19 0 33 46 21 69 -13 23 -59 29 -79 9z m56 -31 c4 -21 -27 -35 -38 -17 -12 19 0 42 19 38 9 -2 17 -11 19 -21z m-581 -423 c8 -21 -13 -42 -28 -27 -13 13 -5 43 11 43 6 0 13 -7 17 -16z m-757 -514 c0 -13 -7 -20 -20 -20 -13 0 -20 7 -20 20 0 13 7 20 20 20 13 0 20 -7 20 -20z"/> <path d="M2232 2538 c-17 -17 -15 -48 3 -68 12 -14 16 -47 18 -148 2 -115 0 -132 -15 -141 -22 -14 -24 -67 -2 -79 23 -13 23 -359 -1 -376 -11 -7 -15 -22 -13 -40 3 -24 -16 -46 -142 -172 l-146 -144 -92 0 -92 0 0 -135 0 -136 208 1 207 2 1 -111 0 -111 -256 0 -256 0 -44 -45 c-34 -34 -49 -43 -66 -39 -16 4 -28 -1 -41 -15 -17 -21 -24 -21 -415 -21 -249 0 -398 4 -398 10 0 19 -41 33 -65 22 -33 -15 -38 -50 -10 -77 24 -25 62 -24 72 1 4 12 76 14 399 14 385 0 395 -1 423 -21 23 -17 33 -19 49 -10 22 12 37 45 27 60 -3 6 14 28 37 50 l43 40 262 1 262 0 3 126 3 126 94 0 c76 0 96 -3 103 -16 13 -23 65 -21 78 3 14 27 13 47 -6 65 -21 22 -51 20 -71 -4 -17 -19 -30 -20 -314 -20 l-296 0 -5 52 c-3 29 -3 77 -1 106 l6 52 81 0 81 0 150 150 c102 102 157 150 172 150 26 0 53 25 53 49 0 10 -9 26 -20 36 -19 17 -20 31 -20 190 0 159 1 173 20 190 11 10 20 26 20 35 0 9 -9 25 -20 35 -18 16 -20 31 -20 149 0 120 2 132 20 144 22 14 27 51 8 70 -7 7 -24 12 -38 12 -14 0 -31 -5 -38 -12z m57 -22 c9 -10 8 -16 -4 -26 -19 -16 -41 1 -32 24 8 20 21 20 36 2z m1 -376 c0 -13 -7 -20 -19 -20 -22 0 -35 15 -26 30 12 19 45 11 45 -10z m-2 -453 c2 -11 -3 -17 -17 -17 -23 0 -35 15 -26 31 10 15 39 6 43 -14z m162 -567 c0 -13 -7 -20 -20 -20 -13 0 -20 7 -20 20 0 13 7 20 20 20 13 0 20 -7 20 -20z m-1785 -374 c0 -22 -14 -29 -34 -17 -19 12 -6 43 16 39 10 -2 18 -12 18 -22z m892 8 c3 -8 1 -20 -5 -26 -15 -15 -43 8 -35 28 7 19 32 18 40 -2z"/> <path d="M2362 2538 c-19 -19 -14 -56 8 -70 19 -12 20 -24 20 -428 0 -409 0 -415 -21 -428 -13 -9 -19 -21 -17 -37 2 -20 -25 -53 -147 -175 l-150 -150 -87 0 c-53 0 -88 4 -88 10 0 6 -11 15 -24 21 -34 16 -66 -4 -66 -39 0 -52 35 -72 73 -41 21 15 41 19 114 19 l88 0 155 155 c119 119 161 155 180 155 47 0 66 45 35 80 -23 26 -23 835 0 860 32 35 12 80 -35 80 -14 0 -31 -5 -38 -12z m57 -22 c9 -10 8 -16 -4 -26 -19 -16 -41 1 -32 24 8 20 21 20 36 2z m4 -930 c8 -20 -20 -43 -35 -28 -14 14 -3 42 16 42 7 0 16 -6 19 -14z m-567 -337 c10 -17 -23 -46 -37 -32 -7 7 -9 19 -6 27 7 18 33 21 43 5z"/> <path d="M1176 1761 c-126 -126 -154 -149 -178 -149 -37 1 -51 -13 -50 -50 1 -43 -106 -148 -146 -144 -35 4 -55 -18 -50 -55 4 -38 49 -55 78 -28 11 10 20 28 20 39 0 28 121 149 141 141 22 -8 53 20 54 50 1 20 36 61 146 171 l144 144 392 0 393 0 0 -56 c0 -37 -5 -61 -16 -71 -8 -9 -14 -27 -13 -42 2 -21 -15 -44 -91 -118 -61 -61 -100 -93 -115 -93 -23 0 -55 -28 -55 -48 0 -17 37 -52 55 -52 24 0 57 39 50 59 -8 25 176 209 213 213 19 2 30 11 37 32 8 24 6 31 -13 46 -19 16 -22 28 -22 89 l0 71 -413 0 -412 0 -149 -149z m981 -37 c3 -8 1 -20 -5 -26 -15 -15 -43 8 -35 28 7 19 32 18 40 -2z m-1139 -157 c4 -20 -25 -34 -40 -19 -15 15 -1 44 19 40 10 -2 19 -11 21 -21z m888 -126 c-10 -16 -36 -13 -43 5 -8 22 18 37 36 20 7 -8 10 -19 7 -25z m-1086 -72 c0 -12 -7 -19 -20 -19 -19 0 -28 28 -14 43 11 11 34 -5 34 -24z"/> <path d="M634 1824 c-16 -24 -16 -26 5 -54 20 -28 21 -38 21 -327 l0 -298 122 3 123 3 246 245 246 246 125 0 c103 1 129 -2 152 -17 26 -18 28 -17 57 4 49 36 61 26 61 -49 l0 -65 -76 -3 c-62 -2 -77 0 -82 13 -4 8 -15 20 -26 26 -41 22 -91 -44 -58 -77 6 -6 11 -86 13 -197 l2 -187 -240 0 -240 0 160 160 160 160 3 -97 c2 -79 0 -98 -13 -105 -18 -11 -20 -59 -3 -76 18 -18 53 -15 71 6 22 24 21 45 -3 67 -17 15 -20 33 -22 146 l-3 129 -210 -210 -210 -210 288 0 287 0 0 193 0 193 30 22 c25 19 42 22 115 22 l85 0 0 90 0 90 -31 0 c-21 0 -40 9 -55 25 -13 14 -30 25 -38 25 -8 0 -23 -11 -34 -25 -19 -24 -23 -25 -149 -25 l-128 0 -250 -250 -250 -250 -97 0 -98 0 0 285 c0 277 1 287 21 315 21 28 21 30 5 54 -10 16 -26 26 -41 26 -15 0 -31 -10 -41 -26z m64 -21 c5 -17 -26 -29 -40 -15 -6 6 -7 15 -3 22 9 14 37 9 43 -7z m1019 -129 c3 -8 1 -20 -5 -26 -15 -15 -43 8 -35 28 7 19 32 18 40 -2z m-109 -167 c4 -22 -27 -35 -38 -16 -10 15 7 42 24 36 6 -2 12 -11 14 -20z m-160 -340 c2 -11 -3 -17 -17 -17 -23 0 -35 15 -26 31 10 15 39 6 43 -14z"/> <path d="M2378 1479 c-22 -12 -24 -62 -3 -79 10 -8 15 -31 15 -70 0 -42 -4 -59 -15 -64 -18 -7 -20 -57 -3 -74 18 -18 53 -15 71 6 22 25 21 45 -3 67 -15 13 -20 31 -20 67 0 35 6 54 20 68 11 11 20 27 20 35 0 18 -35 55 -52 55 -7 0 -21 -5 -30 -11z m49 -35 c3 -8 1 -20 -6 -27 -14 -14 -47 15 -37 32 10 16 36 13 43 -5z m1 -217 c2 -11 -3 -17 -17 -17 -23 0 -35 15 -26 31 10 15 39 6 43 -14z"/> <path d="M900 1043 c-8 -3 -19 -12 -23 -19 -6 -10 -35 -14 -112 -14 l-105 0 0 -85 0 -85 373 0 373 0 69 70 69 70 258 0 c169 0 258 -4 258 -10 0 -19 46 -33 69 -21 29 16 29 76 0 92 -18 9 -27 7 -50 -10 -27 -20 -40 -21 -286 -21 l-259 0 -69 -70 -69 -70 -353 -2 -353 -3 0 58 0 57 85 0 c72 0 88 -3 105 -20 11 -11 27 -20 35 -20 8 0 24 9 35 20 18 18 33 20 190 20 157 0 172 -2 190 -20 24 -24 43 -25 64 -4 19 18 21 55 4 72 -17 17 -67 15 -74 -3 -5 -13 -35 -15 -180 -15 -161 0 -176 2 -194 20 -21 21 -25 22 -50 13z m38 -46 c4 -20 -25 -34 -40 -19 -15 15 -1 44 19 40 10 -2 19 -11 21 -21z m439 12 c14 -14 6 -39 -12 -39 -18 0 -28 17 -21 35 6 18 18 19 33 4z m751 -12 c4 -20 -25 -34 -40 -19 -15 15 -1 44 19 40 10 -2 19 -11 21 -21z"/> <path d="M1700 782 c-28 -22 -22 -65 11 -83 18 -9 27 -7 50 10 27 20 39 21 319 21 282 0 292 -1 320 -21 28 -21 30 -21 54 -5 31 20 34 56 8 79 -25 22 -45 21 -67 -3 -17 -19 -31 -20 -314 -20 -284 0 -297 1 -314 20 -21 25 -38 25 -67 2z m53 -26 c8 -20 -20 -43 -35 -28 -14 14 -3 42 16 42 7 0 16 -6 19 -14z m694 -2 c8 -21 -13 -42 -28 -27 -13 13 -5 43 11 43 6 0 13 -7 17 -16z"/> </g> </svg> 