<svg version="1.1" id="Layer_1" xmlns="http://www.w3.org/2000/svg" xmlns:xlink="http://www.w3.org/1999/xlink" x="0px" y="0px"
	 width="100%" viewBox="0 0 1174 1162" enable-background="new 0 0 1174 1162" xml:space="preserve">
<path fill="#FAFAFA" opacity="1.000000" stroke="none" 
	d="
M1175.000000,283.000000 
	C1175.000000,576.666687 1175.000000,869.833313 1175.000000,1163.000000 
	C783.666687,1163.000000 392.333344,1163.000000 1.000000,1163.000000 
	C1.000000,775.666687 1.000000,388.333344 1.000000,1.000000 
	C392.333344,1.000000 783.666687,1.000000 1175.000000,1.000000 
	C1175.000000,94.833336 1175.000000,188.666672 1175.000000,283.000000 
M1143.499878,1155.796997 
	C1150.780518,1155.796997 1158.061035,1155.796997 1165.596069,1155.796997 
	C1165.596069,774.136414 1165.596069,393.083740 1165.596069,11.933264 
	C780.756287,11.933264 396.215424,11.933264 11.694653,11.933264 
	C11.694653,393.361420 11.694653,774.415955 11.694653,1155.796997 
	C388.884064,1155.796997 765.692017,1155.796997 1143.499878,1155.796997 
z"/>
<path fill="#070707" opacity="1.000000" stroke="none" 
	d="
M1143.000000,1155.796997 
	C765.692017,1155.796997 388.884064,1155.796997 11.694653,1155.796997 
	C11.694653,774.415955 11.694653,393.361420 11.694653,11.933264 
	C396.215424,11.933264 780.756287,11.933264 1165.596069,11.933264 
	C1165.596069,393.083740 1165.596069,774.136414 1165.596069,1155.796997 
	C1158.061035,1155.796997 1150.780518,1155.796997 1143.000000,1155.796997 
M1149.864746,940.500000 
	C1149.864746,636.269470 1149.864746,332.038940 1149.864746,27.646841 
	C775.318237,27.646841 401.451569,27.646841 27.562798,27.646841 
	C27.562798,398.472351 27.562798,768.968201 27.562798,1139.355957 
	C401.846039,1139.355957 775.705139,1139.355957 1149.864746,1139.355957 
	C1149.864746,1073.124512 1149.864746,1007.312256 1149.864746,940.500000 
z"/>
<path fill="#FDFDFD" opacity="1.000000" stroke="none" 
	d="
M1149.864746,941.000000 
	C1149.864746,1007.312256 1149.864746,1073.124512 1149.864746,1139.355957 
	C775.705139,1139.355957 401.846039,1139.355957 27.562798,1139.355957 
	C27.562798,768.968201 27.562798,398.472351 27.562798,27.646841 
	C401.451569,27.646841 775.318237,27.646841 1149.864746,27.646841 
	C1149.864746,332.038940 1149.864746,636.269470 1149.864746,941.000000 
M1106.779907,890.429321 
	C1121.653320,887.111877 1131.189087,875.834106 1131.140381,861.618958 
	C1131.094238,848.145142 1121.658691,836.298340 1108.617554,833.340088 
	C1094.612915,830.163391 1081.523804,836.774231 1075.312988,850.765808 
	C1073.752563,854.281189 1071.493530,853.761292 1068.943604,853.761475 
	C956.612488,853.770264 844.281311,853.769043 731.950195,853.769043 
	C730.205505,853.769104 728.460876,853.769104 726.551270,853.769104 
	C726.551270,813.710266 726.551270,774.446777 726.551270,734.586670 
	C728.540527,734.586670 730.323120,734.586670 732.105713,734.586670 
	C761.438477,734.586670 790.771790,734.667358 820.102905,734.448181 
	C822.720642,734.428589 825.970398,733.122192 827.832825,731.297180 
	C844.966614,714.508057 861.858398,697.471985 878.821716,680.508911 
	C917.004944,642.326172 955.217896,604.172913 993.317566,565.906982 
	C996.370605,562.840637 999.136414,561.273376 1003.721375,562.135010 
	C1010.695374,563.445679 1017.548035,562.700256 1023.805603,558.574402 
	C1033.180298,552.393372 1038.343872,543.898987 1037.904907,532.649658 
	C1037.460205,521.252625 1032.022339,512.587158 1021.585388,507.670227 
	C1018.512878,506.222748 1017.546143,504.629547 1017.551147,501.322754 
	C1017.648804,436.157532 1017.639526,370.992065 1017.573181,305.826782 
	C1017.570129,302.852722 1018.200134,301.189331 1021.221802,299.770508 
	C1031.997681,294.710846 1037.769165,285.865570 1037.887939,273.998077 
	C1038.008667,261.914551 1032.292725,252.904083 1021.344421,247.656769 
	C1018.472839,246.280472 1017.553589,244.746002 1017.559509,241.656677 
	C1017.651367,193.324463 1017.649780,144.991989 1017.563293,96.659760 
	C1017.557739,93.574295 1018.314880,92.053505 1021.441101,90.886971 
	C1034.695679,85.941078 1042.195312,72.750427 1039.981567,59.029957 
	C1037.845215,45.789074 1026.445557,35.452904 1013.219360,34.764183 
	C999.289062,34.038807 987.057190,42.576363 983.257690,55.676815 
	C979.403564,68.965645 985.317383,82.870361 998.031982,89.406647 
	C1000.963440,90.913651 1001.606873,92.629128 1001.602478,95.590195 
	C1001.530457,144.089142 1001.526550,192.588257 1001.609985,241.087158 
	C1001.615234,244.156021 1000.836182,245.711563 997.766785,246.934662 
	C986.563721,251.398773 979.804382,261.906708 979.859802,273.927612 
	C979.913879,285.655762 986.760132,296.095459 997.774292,300.405701 
	C1000.853210,301.610596 1001.616028,303.147369 1001.612183,306.224182 
	C1001.531372,371.222809 1001.537720,436.221558 1001.596741,501.220245 
	C1001.599304,504.027893 1001.006348,505.540955 998.064819,506.752319 
	C981.198669,513.698181 974.840149,532.389221 983.933044,548.218811 
	C985.477356,550.907349 984.933105,552.255371 982.982849,554.102234 
	C978.882446,557.985352 974.961548,562.057861 970.966858,566.052551 
	C921.359863,615.659424 871.729675,665.243103 822.206238,714.933289 
	C819.376526,717.772522 816.578125,718.873413 812.599915,718.854614 
	C780.434631,718.702209 748.268250,718.769104 716.102234,718.769104 
	C714.328979,718.769104 712.555786,718.769104 710.688354,718.769104 
	C710.688354,769.429810 710.688354,819.474792 710.688354,870.061707 
	C790.642944,870.061707 870.207642,870.061707 949.758667,870.061707 
	C949.758667,913.840149 949.758667,957.074219 949.758667,1000.769104 
	C947.457092,1000.769104 945.492249,1000.769165 943.527405,1000.769165 
	C848.362610,1000.769226 753.197815,1000.790588 658.033081,1000.691284 
	C654.222717,1000.687317 651.551270,1001.789856 648.890076,1004.496399 
	C634.635193,1018.994324 620.167725,1033.282959 605.854126,1047.723633 
	C603.811340,1049.784668 602.326538,1050.729492 599.106567,1049.363525 
	C585.068237,1043.408203 568.733582,1049.763306 562.568054,1063.711548 
	C560.890381,1067.506958 558.971375,1068.352051 555.186584,1068.349854 
	C406.356232,1068.260742 257.525818,1068.260620 108.695465,1068.353394 
	C105.062820,1068.355713 103.208107,1067.497070 101.654533,1063.945190 
	C96.149757,1051.359741 82.339157,1044.762817 69.001297,1047.821167 
	C55.986534,1050.805664 46.381550,1062.754150 46.306236,1076.053467 
	C46.229836,1089.544922 55.884457,1101.605591 69.187004,1104.636353 
	C82.287880,1107.621216 96.089516,1101.146729 101.464577,1088.717651 
	C103.239571,1084.613159 105.478752,1083.998535 109.317986,1084.000488 
	C257.815033,1084.074585 406.312134,1084.075195 554.809143,1083.997681 
	C558.670776,1083.995728 560.841248,1084.723511 562.630554,1088.745972 
	C569.056152,1103.191284 586.089600,1109.172729 600.628540,1102.654541 
	C614.617004,1096.383179 621.421570,1079.849854 615.414978,1065.764771 
	C614.049072,1062.561890 614.955261,1061.042358 617.036499,1058.982666 
	C629.948608,1046.204468 642.845154,1033.407715 655.540894,1020.415894 
	C658.348450,1017.542786 661.179138,1016.501648 665.151001,1016.505798 
	C763.315674,1016.609131 861.480408,1016.586670 959.645142,1016.586670 
	C961.593628,1016.586670 963.542114,1016.586670 965.938171,1016.586670 
	C965.938171,967.364624 965.938171,918.778076 965.938171,870.255249 
	C966.811401,869.942810 967.263000,869.640015 967.714905,869.639587 
	C1002.214050,869.607117 1036.713379,869.566772 1071.211914,869.710449 
	C1072.511597,869.715881 1074.381958,871.242188 1075.010254,872.534363 
	C1081.414307,885.704956 1091.486450,891.674866 1106.779907,890.429321 
M389.659271,677.159851 
	C428.356995,638.561096 467.037903,599.945435 505.817841,561.429443 
	C507.271179,559.986023 509.684296,558.709595 511.654541,558.703186 
	C558.153381,558.551575 604.652893,558.560303 651.151917,558.695312 
	C652.700195,558.699829 654.839050,559.937439 655.700256,561.255310 
	C668.604553,581.001587 693.815308,581.025879 706.564209,561.225769 
	C707.214539,560.215759 708.279297,558.751099 709.176270,558.732910 
	C718.268677,558.547791 727.366272,558.619934 736.528687,558.619934 
	C736.528687,584.033264 736.528687,608.768921 736.528687,634.016235 
	C734.413147,634.016235 732.623535,634.016174 730.833862,634.016174 
	C704.500854,634.016174 678.167542,633.947937 651.835327,634.092529 
	C648.044739,634.113281 646.111023,633.383606 644.657043,629.343384 
	C640.454468,617.665771 628.513489,610.184631 616.505798,610.829041 
	C603.737427,611.514282 593.133850,619.839050 589.617310,631.938965 
	C586.202087,643.690125 590.652039,656.546936 601.150513,663.538635 
	C604.112427,665.511292 604.322937,667.691956 604.321594,670.588867 
	C604.291382,737.754639 604.298218,804.920349 604.298218,872.086121 
	C604.298218,873.843811 604.298218,875.601562 604.298218,877.005737 
	C512.756165,877.005737 421.958984,877.005737 331.400848,877.005737 
	C392.510529,816.190186 453.471100,755.523010 514.298218,694.988647 
	C514.298218,695.726807 514.298218,697.182373 514.298218,698.637878 
	C514.298218,732.637390 514.259460,766.637085 514.359558,800.636292 
	C514.369324,803.949646 513.611755,805.831970 510.423920,807.619385 
	C497.051239,815.117493 492.138397,831.667114 498.784180,845.303406 
	C505.442383,858.965332 521.573303,865.260925 535.650208,859.691467 
	C549.946411,854.035339 557.394104,838.257507 552.569153,823.554504 
	C549.038574,812.795532 541.154053,806.696106 529.949829,803.653564 
	C529.949829,754.458496 529.949829,705.287598 529.949829,656.955444 
	C451.112366,735.792786 372.178131,814.726868 293.582031,893.322876 
	C401.773407,893.322876 510.832733,893.322876 620.348511,893.322876 
	C620.348511,818.472595 620.348511,743.882996 620.348511,669.055786 
	C630.588745,667.316528 638.658997,662.682617 643.215210,653.520142 
	C644.778687,650.376099 646.637390,649.749268 649.768921,649.758240 
	C682.101501,649.849731 714.434509,649.814392 746.767395,649.814392 
	C748.540894,649.814392 750.314392,649.814453 752.339966,649.814453 
	C752.339966,613.821899 752.339966,578.424316 752.339966,543.134216 
	C751.770447,542.882202 751.477051,542.639526 751.182678,542.638367 
	C739.018127,542.591553 726.851990,542.452576 714.689880,542.612671 
	C711.343323,542.656738 709.847595,541.860107 708.855713,538.346619 
	C705.397400,526.095886 694.265503,517.904236 681.754150,517.771179 
	C668.690491,517.632263 657.468201,525.360535 653.840942,537.843689 
	C652.617004,542.055969 650.620972,542.618469 646.867554,542.609680 
	C600.201782,542.500916 553.535645,542.571472 506.869812,542.470764 
	C503.447327,542.463379 500.957123,543.329224 498.554901,545.843445 
	C491.774323,552.940247 484.725372,559.780640 477.783081,566.722900 
	C391.281189,653.224060 304.767822,739.713745 218.332153,826.280945 
	C215.648575,828.968689 213.010544,830.113098 209.195679,830.097717 
	C174.696716,829.958557 140.196960,830.016174 105.697441,830.016174 
	C103.930901,830.016174 102.164360,830.016235 99.913147,830.016235 
	C99.913147,827.694702 99.913147,826.068237 99.913147,824.441711 
	C99.913124,717.109863 99.926292,609.777954 99.852341,502.446136 
	C99.850014,499.067902 100.562752,497.253845 104.039040,495.783752 
	C116.698044,490.430267 123.343239,476.754608 120.390114,463.282684 
	C117.463554,449.931885 105.492455,440.248352 91.961037,440.286133 
	C78.455208,440.323822 66.554977,450.015045 63.586327,463.393707 
	C60.674232,476.517548 67.264534,490.300049 79.667366,495.607544 
	C83.555588,497.271423 84.169495,499.389526 84.166908,503.063232 
	C84.087929,615.228333 84.102478,727.393433 84.102470,839.558533 
	C84.102470,841.491333 84.102463,843.424194 84.102463,845.814453 
	C86.572418,845.814453 88.368980,845.814392 90.165550,845.814392 
	C131.998306,845.814392 173.831207,845.767578 215.663574,845.893311 
	C219.463821,845.904724 222.128769,844.802429 224.811844,842.112366 
	C279.540710,787.241394 334.358917,732.459534 389.659271,677.159851 
M435.500000,941.059387 
	C441.997253,941.059387 448.501160,941.234802 454.989014,940.987854 
	C458.407990,940.857788 460.142731,941.792419 461.634888,945.173645 
	C467.338287,958.097290 481.074158,964.704041 494.624634,961.569519 
	C507.563995,958.576416 517.121643,946.496094 517.082397,933.184204 
	C517.042847,919.755005 507.614777,907.892639 494.571411,904.860901 
	C481.022736,901.711792 467.446472,908.301331 461.611694,921.277222 
	C460.222473,924.366516 458.703156,925.361816 455.363281,925.356262 
	C391.368256,925.250671 327.372986,925.258362 263.377899,925.336243 
	C260.204468,925.340088 258.462646,924.703491 257.026428,921.440857 
	C252.044495,910.123230 242.936127,904.197693 230.644745,904.231018 
	C218.584061,904.263733 209.541397,910.056824 204.561035,921.140869 
	C203.053955,924.495117 201.339828,925.360535 197.914978,925.349548 
	C161.918045,925.234375 125.920624,925.278381 89.923332,925.278381 
	C88.143883,925.278381 86.364441,925.278320 84.348091,925.278320 
	C84.348091,958.175842 84.348091,990.445251 84.348091,1023.327271 
	C86.252533,1023.327271 88.042694,1023.327271 89.832863,1023.327271 
	C228.155792,1023.327332 366.478699,1023.311951 504.801575,1023.411011 
	C508.487244,1023.413696 510.956818,1022.236328 513.483276,1019.693604 
	C538.385437,994.631287 563.434937,969.715149 588.331055,944.646790 
	C590.874878,942.085327 593.374207,940.975403 597.035034,940.979309 
	C692.194458,941.080505 787.354004,941.081848 882.513428,940.977295 
	C886.331848,940.973083 888.221985,941.885498 889.874451,945.638977 
	C895.335449,958.043030 908.895569,964.503723 922.145020,961.675781 
	C935.341858,958.859131 945.058472,946.777466 945.064880,933.177185 
	C945.071228,919.799072 935.591675,907.886475 922.543701,904.875793 
	C909.322083,901.825134 895.749573,908.045105 890.080933,920.433044 
	C888.213562,924.513916 885.972900,925.382141 881.827759,925.373779 
	C814.999695,925.238770 748.171326,925.278381 681.343018,925.278381 
	C650.845337,925.278381 620.347412,925.232849 589.850342,925.370911 
	C587.588440,925.381165 584.669617,926.040894 583.172241,927.524780 
	C557.605469,952.863159 532.171814,978.336548 506.851776,1003.921753 
	C504.285675,1006.514587 501.830597,1007.617676 498.184235,1007.615234 
	C367.360809,1007.526733 236.537308,1007.540955 105.713806,1007.540955 
	C103.939651,1007.540955 102.165497,1007.541016 100.239883,1007.541016 
	C100.239883,985.184570 100.239883,963.457886 100.239883,941.327271 
	C102.211723,941.327271 103.858215,941.327271 105.504707,941.327271 
	C136.335724,941.327271 167.166946,941.378967 197.997452,941.254944 
	C201.436905,941.241089 203.103256,942.160889 204.637573,945.485229 
	C209.622986,956.287048 218.496689,962.085022 230.360474,962.222168 
	C242.435272,962.361877 251.692139,956.742676 256.649231,945.681458 
	C258.497955,941.556335 260.703735,940.993103 264.512878,940.999023 
	C321.175171,941.086609 377.837585,941.059448 435.500000,941.059387 
M433.884003,437.383911 
	C387.588928,483.680359 341.279510,529.962524 295.040283,576.314697 
	C292.677460,578.683289 290.929688,579.460876 287.394104,578.109558 
	C275.682465,573.633057 264.912415,576.048279 256.188904,584.986938 
	C247.589844,593.798096 245.546875,604.446716 250.263046,615.881836 
	C251.572006,619.055603 250.772385,620.583618 248.675644,622.669250 
	C226.582504,644.644958 204.570786,666.702515 182.528183,688.729004 
	C181.598389,689.658142 180.586868,690.505432 179.522339,691.473816 
	C178.371017,690.921082 177.341827,690.421997 176.308502,689.931763 
	C163.530914,683.869324 148.942581,687.309875 140.389694,698.401794 
	C132.149734,709.087830 132.416260,724.224182 141.024994,734.486511 
	C150.056473,745.252808 165.051056,748.241455 177.243637,741.705688 
	C189.479401,735.146606 195.397110,721.072266 191.193619,707.623108 
	C190.233002,704.549561 190.870636,702.846619 193.007965,700.722717 
	C215.466293,678.405457 237.857758,656.020325 260.161865,633.549011 
	C262.360931,631.333496 264.023438,631.010071 267.012726,632.125305 
	C278.384644,636.367920 288.877502,634.198730 297.444458,625.713257 
	C306.151764,617.088806 308.512543,606.481018 304.102905,594.920044 
	C302.922852,591.826294 303.469940,590.217773 305.632660,588.093872 
	C316.322906,577.595947 326.866425,566.948547 337.461578,556.353760 
	C379.881866,513.934875 422.325653,471.539368 464.667145,429.041962 
	C467.356293,426.342896 470.028229,425.249969 473.831390,425.252228 
	C622.640869,425.340210 771.450439,425.326996 920.259949,425.326996 
	C922.043213,425.326996 923.826477,425.326965 925.535706,425.326965 
	C925.814514,426.325806 926.057373,426.790955 926.058044,427.256439 
	C926.086975,447.086304 926.035034,466.916595 926.171021,486.745636 
	C926.190491,489.584412 924.707764,490.282959 922.561218,491.208344 
	C911.232300,496.092285 904.278931,506.744446 905.286133,518.989075 
	C905.735046,524.447327 908.003174,529.755920 909.611938,535.752136 
	C909.549133,535.821289 908.916321,536.579041 908.221191,537.274475 
	C873.838806,571.669556 839.413147,606.021484 805.140930,640.525940 
	C802.587097,643.096985 800.692444,642.739624 797.783813,641.707520 
	C784.763672,637.087158 770.682434,642.308838 763.557434,654.135925 
	C756.463379,665.911743 758.547363,680.766907 768.624878,690.257751 
	C778.449951,699.510864 793.417664,700.778320 804.619141,693.305725 
	C816.041016,685.686096 820.695312,671.223694 815.382263,658.530029 
	C814.031433,655.302673 814.617126,653.603149 816.931763,651.292908 
	C851.232666,617.057739 885.464478,582.753052 919.606995,548.359863 
	C922.113892,545.834595 924.206421,545.039490 927.814575,545.916870 
	C942.260315,549.429688 956.860107,541.135681 961.643188,527.122070 
	C966.517578,512.840820 959.865051,497.260590 945.927734,491.389252 
	C942.554382,489.968140 942.078125,488.134247 942.090393,485.033569 
	C942.182800,461.704346 942.140747,438.374573 942.140747,415.044983 
	C942.140747,413.279938 942.140747,411.514893 942.140747,409.523834 
	C940.199341,409.419159 938.897522,409.287567 937.595642,409.287506 
	C780.454102,409.278259 623.312561,409.268036 466.171143,409.388153 
	C463.981415,409.389832 461.281708,410.496307 459.689087,412.004761 
	C451.102448,420.137726 442.790619,428.560822 433.884003,437.383911 
M624.270752,329.728058 
	C625.203064,328.348969 626.644470,327.082245 626.977966,325.570984 
	C628.300293,319.579468 632.445618,319.496979 637.414490,319.502197 
	C736.902222,319.606628 836.390015,319.580231 935.877808,319.580231 
	C937.834229,319.580231 939.790649,319.580200 942.138550,319.580200 
	C942.138550,317.184875 942.138611,315.374847 942.138611,313.564819 
	C942.138611,241.407013 942.161133,169.249191 942.070374,97.091507 
	C942.065918,93.579933 942.649658,91.524750 946.296692,89.908638 
	C958.882202,84.331665 965.452393,70.934143 962.607422,57.823071 
	C959.672302,44.297138 948.076843,34.794350 934.364990,34.677692 
	C920.690125,34.561352 908.862976,43.930840 905.727295,57.364353 
	C902.632812,70.621780 909.203491,84.228844 921.971375,89.944435 
	C925.321167,91.444016 926.182251,93.185173 926.177429,96.613693 
	C926.083130,163.771973 926.107361,230.930420 926.107361,298.088837 
	C926.107361,299.713379 926.107361,301.337921 926.107361,303.306458 
	C924.036072,303.399139 922.420898,303.534485 920.805786,303.534668 
	C825.317505,303.544586 729.829224,303.528442 634.341003,303.607880 
	C631.121155,303.610565 629.433777,302.889496 628.018372,299.670227 
	C623.128784,288.549957 614.239441,282.640228 602.126221,282.509460 
	C589.815857,282.376556 580.644592,288.157928 575.569946,299.421906 
	C574.040710,302.816376 572.291138,303.618652 568.894958,303.609497 
	C530.399963,303.505737 491.904358,303.601410 453.409607,303.459961 
	C449.275726,303.444763 446.349182,304.535339 443.365509,307.524841 
	C355.557343,395.504364 267.637482,483.372375 179.804672,571.327332 
	C177.291183,573.844360 175.362000,574.647095 171.688324,573.413452 
	C157.489426,568.645264 141.789825,576.596008 136.313995,590.844849 
	C130.912033,604.901489 137.530609,621.095947 151.275787,627.453674 
	C165.107544,633.851257 181.678024,628.503235 188.881958,615.261841 
	C194.285568,605.329773 193.543900,595.444031 187.926666,585.119873 
	C196.837326,576.379028 205.807343,567.721436 214.623383,558.909790 
	C293.593689,479.979370 372.529144,401.014038 451.553162,322.137451 
	C452.906677,320.786407 455.231476,319.693512 457.107574,319.686523 
	C494.935730,319.545105 532.764648,319.548309 570.592712,319.703522 
	C572.053162,319.709503 574.209167,321.182434 574.857361,322.537872 
	C584.648254,343.012115 608.541748,346.862335 624.270752,329.728058 
M528.500000,258.057922 
	C598.489014,258.057922 668.478027,258.057922 738.467041,258.057922 
	C755.130554,258.057922 771.794067,258.075439 788.457458,258.038483 
	C790.855652,258.033142 792.691528,258.058411 794.009216,260.880829 
	C799.132690,271.855194 808.002197,277.747803 820.110840,277.775391 
	C832.211670,277.802979 840.904175,271.899475 846.496704,261.122009 
	C847.252075,259.666412 849.600525,258.289612 851.284058,258.196930 
	C857.539917,257.852356 863.826172,258.059540 870.617493,258.059540 
	C870.617493,255.497421 870.617493,253.535141 870.617493,251.572861 
	C870.617493,199.916016 870.651367,148.259094 870.541626,96.602486 
	C870.534241,93.133881 871.494263,91.349174 874.769531,89.874458 
	C887.490234,84.146912 894.028870,70.637001 890.955078,57.265781 
	C887.933655,44.122173 876.183105,34.711567 862.753235,34.679821 
	C849.231140,34.647858 837.305542,43.983620 834.290222,56.961586 
	C831.162415,70.424255 837.529968,84.028534 850.112671,89.777596 
	C853.509521,91.329575 854.660095,93.040993 854.648926,96.775940 
	C854.509460,143.433319 854.559998,190.091248 854.547241,236.749039 
	C854.546753,238.363083 854.393982,239.977097 854.312988,241.575317 
	C850.356812,242.690170 848.446777,241.830597 846.874023,237.966721 
	C842.147217,226.353592 833.059875,220.050583 820.553589,219.892899 
	C808.264771,219.737961 798.922363,225.642242 794.077454,236.927032 
	C792.127808,241.468277 789.756409,242.088974 785.588684,242.086136 
	C666.111450,242.004654 546.634155,242.040085 427.156952,241.937881 
	C423.011780,241.934341 420.088562,243.038605 417.114441,246.022049 
	C337.705566,325.679047 258.185333,405.225098 178.745636,484.851440 
	C176.171021,487.432098 174.287857,488.537903 170.381149,486.830719 
	C157.948349,481.397705 143.376648,486.275696 135.697845,497.804779 
	C128.312256,508.893646 129.689545,523.895691 139.000366,533.777283 
	C148.167862,543.506836 163.381851,545.622375 174.781296,538.752747 
	C186.705902,531.566650 192.106934,517.442139 187.398788,504.622711 
	C186.121307,501.144348 186.505569,499.162140 189.159393,496.514069 
	C267.599731,418.242432 345.948700,339.879150 424.246796,261.465179 
	C426.668396,259.040009 429.057556,257.971405 432.518341,257.985046 
	C464.178497,258.109497 495.839355,258.058044 528.500000,258.057922 
M1078.102905,212.499985 
	C1078.102905,329.802185 1078.081055,447.104431 1078.192871,564.406555 
	C1078.196777,568.525696 1077.375854,570.761536 1073.266724,572.639465 
	C1059.417725,578.968689 1053.342285,594.715088 1059.039429,608.794312 
	C1060.234985,611.748779 1059.948975,613.423218 1057.712280,615.655029 
	C1001.684143,671.559875 945.747864,727.556702 889.689819,783.431335 
	C888.140808,784.975281 885.434692,786.144165 883.260376,786.156677 
	C852.768250,786.332275 822.274719,786.234802 791.781982,786.339600 
	C788.707703,786.350220 787.168335,785.524353 785.861511,782.539551 
	C780.143921,769.481384 766.606018,762.700928 753.097839,765.730408 
	C739.768921,768.719727 730.258240,780.629395 730.299377,794.279785 
	C730.340271,807.870972 740.055420,819.840942 753.333801,822.660645 
	C766.741882,825.507874 780.087280,818.828430 785.728149,806.000549 
	C787.122498,802.829712 788.754700,801.975586 792.037231,801.988037 
	C824.196106,802.109619 856.356018,801.994873 888.514648,802.148865 
	C892.359375,802.167297 894.973999,800.943604 897.631897,798.279480 
	C954.475464,741.304810 1011.412170,684.423218 1068.263794,627.456665 
	C1070.731689,624.983826 1072.501343,623.960388 1076.278931,625.519470 
	C1090.464844,631.374207 1106.976929,623.837708 1112.963013,609.304871 
	C1118.801025,595.131714 1112.401855,578.464050 1098.360107,572.312866 
	C1094.887695,570.791687 1093.823242,569.106750 1093.825684,565.389282 
	C1093.926758,409.091461 1093.921143,252.793549 1093.851562,96.495689 
	C1093.850098,93.306282 1094.477417,91.559227 1097.755981,90.165230 
	C1110.518677,84.738579 1117.358154,71.170868 1114.530762,57.848034 
	C1111.659302,44.317551 1100.099609,34.831867 1086.325317,34.703163 
	C1072.597290,34.574890 1060.768555,43.910225 1057.661133,57.325104 
	C1054.589233,70.586899 1061.155273,84.243446 1073.888672,89.902657 
	C1077.495605,91.505730 1078.189331,93.472099 1078.178101,97.026161 
	C1078.057373,135.183807 1078.102905,173.341949 1078.102905,212.499985 
M84.100838,255.499985 
	C84.100838,286.895935 84.100838,318.291901 84.100838,349.687866 
	C84.703087,350.089996 85.305336,350.492126 85.907593,350.894226 
	C86.904419,349.408020 87.687714,347.708496 88.928696,346.466187 
	C154.647797,280.677002 220.423462,214.944260 286.102509,149.115143 
	C289.139923,146.070786 292.128723,144.716156 296.510803,144.720184 
	C425.164124,144.838715 553.817627,144.816223 682.471069,144.816223 
	C684.574890,144.816223 686.678650,144.816223 688.537170,144.816223 
	C688.888733,143.798233 689.090088,143.486526 689.090698,143.174423 
	C689.119690,128.009811 689.325195,112.841278 689.021973,97.682968 
	C688.935791,93.373306 690.219910,91.392731 694.136780,89.545761 
	C708.020508,82.998909 713.913086,66.944481 708.147644,52.727180 
	C702.462952,38.708912 686.747925,31.428364 672.256836,36.099617 
	C660.887329,39.764610 652.804871,50.240868 652.138428,62.176598 
	C651.470154,74.144646 658.241089,85.066750 669.325500,90.283646 
	C670.867737,91.009506 673.088257,92.618362 673.120239,93.866470 
	C673.413574,105.319511 673.292908,116.783165 673.292908,128.768738 
	C670.874817,128.768738 668.916443,128.768738 666.958069,128.768738 
	C541.137634,128.768738 415.317230,128.786423 289.496857,128.687836 
	C285.502045,128.684708 282.750641,129.870316 279.933685,132.695221 
	C221.685684,191.107559 163.337143,249.419662 105.000618,307.743713 
	C103.672752,309.071320 102.253380,310.307343 99.914864,312.479462 
	C99.914864,309.654785 99.914864,308.224487 99.914864,306.794159 
	C99.914902,235.634796 99.947937,164.475372 99.820396,93.316238 
	C99.813812,89.643677 101.158447,88.259773 104.310165,86.844391 
	C116.929939,81.177025 123.358940,67.709816 120.325073,54.162392 
	C117.388809,41.050777 105.654495,31.631998 92.147293,31.544931 
	C78.638039,31.457851 66.494774,41.147026 63.547066,54.365204 
	C60.574615,67.694313 67.266090,81.436455 79.910339,86.905739 
	C83.285942,88.365868 84.178963,90.064003 84.172386,93.516632 
	C84.070084,147.177597 84.100838,200.838806 84.100838,255.499985 
M590.500122,185.279190 
	C525.180969,185.279297 459.861847,185.304413 394.542847,185.209442 
	C391.090271,185.204422 388.677429,186.226151 386.259613,188.667679 
	C367.732910,207.376266 349.040009,225.920181 330.497742,244.613495 
	C328.147308,246.983063 326.363922,247.747635 322.822327,246.478195 
	C311.237000,242.325623 300.702484,244.834274 292.152679,253.707352 
	C283.724701,262.453979 281.775543,272.876526 286.201721,284.179291 
	C287.259308,286.879883 286.809143,288.291321 284.916809,290.178467 
	C249.989273,325.009735 215.106613,359.886047 180.286499,394.824646 
	C178.337906,396.779877 176.897507,397.036530 174.270798,396.002625 
	C160.718231,390.668274 146.636429,395.335297 138.864578,407.418030 
	C131.542923,418.800812 133.347855,434.087921 143.143982,443.663116 
	C152.935272,453.233673 168.064880,454.692200 179.503128,447.168243 
	C191.146088,439.509583 195.583496,425.384552 190.278778,411.987305 
	C189.249847,409.388733 189.549133,407.914917 191.497650,405.973083 
	C226.437286,371.154022 261.311615,336.269348 296.147461,301.346375 
	C297.908447,299.580994 299.221680,299.145233 301.704865,300.234619 
	C313.039429,305.207367 325.031525,302.922760 333.554749,294.519836 
	C341.996490,286.197266 344.672180,273.876129 339.914215,262.724518 
	C338.562866,259.557312 339.449493,258.017273 341.537384,255.945007 
	C358.450684,239.157944 375.343231,222.348190 392.055603,205.361862 
	C394.994049,202.375214 397.926605,201.235794 402.097168,201.239410 
	C525.581238,201.346497 649.065430,201.326340 772.549561,201.326340 
	C774.634094,201.326340 776.718567,201.326340 779.140259,201.326340 
	C779.140259,198.756912 779.140259,196.941925 779.140259,195.126938 
	C779.140320,162.297821 779.173645,129.468613 779.086304,96.639725 
	C779.078003,93.527473 779.579834,91.670029 782.889526,90.236641 
	C795.765686,84.660233 802.611023,71.233551 799.843201,57.964333 
	C797.031616,44.484848 785.349548,34.875355 771.652527,34.774990 
	C757.803162,34.673508 746.017212,43.904736 742.931519,57.270390 
	C739.785156,70.898903 746.333740,84.305351 759.464172,90.108322 
	C762.682312,91.530548 763.381714,93.207306 763.368408,96.406532 
	C763.251892,124.402451 763.301086,152.399063 763.301086,180.395477 
	C763.301086,181.974609 763.301086,183.553726 763.301086,185.279221 
	C705.475098,185.279221 648.487610,185.279221 590.500122,185.279190 
M888.500061,1068.271851 
	C837.017517,1068.271851 785.534973,1068.241943 734.052612,1068.339600 
	C730.626343,1068.346069 728.842468,1067.505859 727.360657,1064.115845 
	C721.801025,1051.396484 708.260803,1044.809326 694.837524,1047.785767 
	C681.646667,1050.710693 672.194519,1062.364624 672.101318,1075.818115 
	C672.005432,1089.648315 681.240845,1101.450195 694.592285,1104.559204 
	C707.945374,1107.668579 721.589355,1101.144409 727.238403,1088.485107 
	C728.775940,1085.039551 730.535278,1083.973755 734.252686,1083.977417 
	C845.881409,1084.085693 957.510254,1084.080200 1069.139038,1083.995850 
	C1072.582397,1083.993286 1074.278320,1084.910278 1075.753662,1088.243530 
	C1081.384644,1100.965820 1094.858643,1107.548340 1108.286987,1104.650391 
	C1121.480591,1101.802856 1131.161743,1089.715942 1131.141846,1076.115967 
	C1131.122192,1062.695801 1121.625732,1050.766479 1108.626221,1047.831909 
	C1095.147461,1044.789185 1081.744873,1051.117554 1075.967896,1063.880615 
	C1074.254272,1067.666016 1072.129639,1068.348755 1068.439331,1068.342529 
	C1008.793091,1068.242676 949.146545,1068.271973 888.500061,1068.271851 
M1099.559692,825.245667 
	C1111.118530,820.327515 1117.673218,811.506165 1117.995972,799.063293 
	C1118.323608,786.430237 1112.322754,776.984375 1100.603394,771.763428 
	C1097.616211,770.432617 1096.856567,768.691162 1096.875732,765.666931 
	C1096.988403,747.836670 1097.024902,730.004456 1096.851685,712.175171 
	C1096.816650,708.570740 1097.634033,706.653687 1101.253540,705.108032 
	C1112.190918,700.437439 1119.168701,688.255066 1118.093506,676.874084 
	C1116.722656,662.359314 1105.687378,651.166504 1091.633545,650.036011 
	C1077.266235,648.880371 1064.410767,657.928650 1060.805054,671.734680 
	C1057.248901,685.350952 1064.122070,699.483887 1077.529907,705.461792 
	C1080.259888,706.678894 1081.225708,708.034058 1081.206299,710.973267 
	C1081.084717,729.303284 1081.094482,747.634949 1081.197998,765.965210 
	C1081.214233,768.806580 1080.470337,770.381531 1077.696777,771.665833 
	C1062.814453,778.556702 1056.258423,794.066589 1061.827637,808.571106 
	C1067.476074,823.281799 1082.700317,830.260681 1099.559692,825.245667 
z"/>
<path fill="#080808" opacity="1.000000" stroke="none" 
	d="
M1106.354614,890.503784 
	C1091.486450,891.674866 1081.414307,885.704956 1075.010254,872.534363 
	C1074.381958,871.242188 1072.511597,869.715881 1071.211914,869.710449 
	C1036.713379,869.566772 1002.214050,869.607117 967.714905,869.639587 
	C967.263000,869.640015 966.811401,869.942810 965.938171,870.255249 
	C965.938171,918.778076 965.938171,967.364624 965.938171,1016.586670 
	C963.542114,1016.586670 961.593628,1016.586670 959.645142,1016.586670 
	C861.480408,1016.586670 763.315674,1016.609131 665.151001,1016.505798 
	C661.179138,1016.501648 658.348450,1017.542786 655.540894,1020.415894 
	C642.845154,1033.407715 629.948608,1046.204468 617.036499,1058.982666 
	C614.955261,1061.042358 614.049072,1062.561890 615.414978,1065.764771 
	C621.421570,1079.849854 614.617004,1096.383179 600.628540,1102.654541 
	C586.089600,1109.172729 569.056152,1103.191284 562.630554,1088.745972 
	C560.841248,1084.723511 558.670776,1083.995728 554.809143,1083.997681 
	C406.312134,1084.075195 257.815033,1084.074585 109.317986,1084.000488 
	C105.478752,1083.998535 103.239571,1084.613159 101.464577,1088.717651 
	C96.089516,1101.146729 82.287880,1107.621216 69.187004,1104.636353 
	C55.884457,1101.605591 46.229836,1089.544922 46.306236,1076.053467 
	C46.381550,1062.754150 55.986534,1050.805664 69.001297,1047.821167 
	C82.339157,1044.762817 96.149757,1051.359741 101.654533,1063.945190 
	C103.208107,1067.497070 105.062820,1068.355713 108.695465,1068.353394 
	C257.525818,1068.260620 406.356232,1068.260742 555.186584,1068.349854 
	C558.971375,1068.352051 560.890381,1067.506958 562.568054,1063.711548 
	C568.733582,1049.763306 585.068237,1043.408203 599.106567,1049.363525 
	C602.326538,1050.729492 603.811340,1049.784668 605.854126,1047.723633 
	C620.167725,1033.282959 634.635193,1018.994324 648.890076,1004.496399 
	C651.551270,1001.789856 654.222717,1000.687317 658.033081,1000.691284 
	C753.197815,1000.790588 848.362610,1000.769226 943.527405,1000.769165 
	C945.492249,1000.769165 947.457092,1000.769104 949.758667,1000.769104 
	C949.758667,957.074219 949.758667,913.840149 949.758667,870.061707 
	C870.207642,870.061707 790.642944,870.061707 710.688354,870.061707 
	C710.688354,819.474792 710.688354,769.429810 710.688354,718.769104 
	C712.555786,718.769104 714.328979,718.769104 716.102234,718.769104 
	C748.268250,718.769104 780.434631,718.702209 812.599915,718.854614 
	C816.578125,718.873413 819.376526,717.772522 822.206238,714.933289 
	C871.729675,665.243103 921.359863,615.659424 970.966858,566.052551 
	C974.961548,562.057861 978.882446,557.985352 982.982849,554.102234 
	C984.933105,552.255371 985.477356,550.907349 983.933044,548.218811 
	C974.840149,532.389221 981.198669,513.698181 998.064819,506.752319 
	C1001.006348,505.540955 1001.599304,504.027893 1001.596741,501.220245 
	C1001.537720,436.221558 1001.531372,371.222809 1001.612183,306.224182 
	C1001.616028,303.147369 1000.853210,301.610596 997.774292,300.405701 
	C986.760132,296.095459 979.913879,285.655762 979.859802,273.927612 
	C979.804382,261.906708 986.563721,251.398773 997.766785,246.934662 
	C1000.836182,245.711563 1001.615234,244.156021 1001.609985,241.087158 
	C1001.526550,192.588257 1001.530457,144.089142 1001.602478,95.590195 
	C1001.606873,92.629128 1000.963440,90.913651 998.031982,89.406647 
	C985.317383,82.870361 979.403564,68.965645 983.257690,55.676815 
	C987.057190,42.576363 999.289062,34.038807 1013.219360,34.764183 
	C1026.445557,35.452904 1037.845215,45.789074 1039.981567,59.029957 
	C1042.195312,72.750427 1034.695679,85.941078 1021.441101,90.886971 
	C1018.314880,92.053505 1017.557739,93.574295 1017.563293,96.659760 
	C1017.649780,144.991989 1017.651367,193.324463 1017.559509,241.656677 
	C1017.553589,244.746002 1018.472839,246.280472 1021.344421,247.656769 
	C1032.292725,252.904083 1038.008667,261.914551 1037.887939,273.998077 
	C1037.769165,285.865570 1031.997681,294.710846 1021.221802,299.770508 
	C1018.200134,301.189331 1017.570129,302.852722 1017.573181,305.826782 
	C1017.639526,370.992065 1017.648804,436.157532 1017.551147,501.322754 
	C1017.546143,504.629547 1018.512878,506.222748 1021.585388,507.670227 
	C1032.022339,512.587158 1037.460205,521.252625 1037.904907,532.649658 
	C1038.343872,543.898987 1033.180298,552.393372 1023.805603,558.574402 
	C1017.548035,562.700256 1010.695374,563.445679 1003.721375,562.135010 
	C999.136414,561.273376 996.370605,562.840637 993.317566,565.906982 
	C955.217896,604.172913 917.004944,642.326172 878.821716,680.508911 
	C861.858398,697.471985 844.966614,714.508057 827.832825,731.297180 
	C825.970398,733.122192 822.720642,734.428589 820.102905,734.448181 
	C790.771790,734.667358 761.438477,734.586670 732.105713,734.586670 
	C730.323120,734.586670 728.540527,734.586670 726.551270,734.586670 
	C726.551270,774.446777 726.551270,813.710266 726.551270,853.769104 
	C728.460876,853.769104 730.205505,853.769104 731.950195,853.769043 
	C844.281311,853.769043 956.612488,853.770264 1068.943604,853.761475 
	C1071.493530,853.761292 1073.752563,854.281189 1075.312988,850.765808 
	C1081.523804,836.774231 1094.612915,830.163391 1108.617554,833.340088 
	C1121.658691,836.298340 1131.094238,848.145142 1131.140381,861.618958 
	C1131.189087,875.834106 1121.653320,887.111877 1106.354614,890.503784 
M1000.200317,523.644897 
	C995.333679,529.051270 994.363220,534.050964 997.124939,539.487976 
	C999.524902,544.212891 1004.630432,547.117859 1009.773560,546.684631 
	C1015.544067,546.198608 1020.072021,542.453918 1021.624390,536.884094 
	C1023.014771,531.895386 1021.131042,526.407898 1016.904541,523.134521 
	C1012.112610,519.423218 1006.927002,519.430603 1000.200317,523.644897 
M1022.044556,71.301453 
	C1025.366699,65.041298 1025.063965,59.514919 1021.155518,55.075119 
	C1017.524353,50.950096 1011.683411,49.508488 1006.566406,51.474442 
	C1001.520081,53.413208 998.230591,58.042633 998.123718,63.355888 
	C998.013306,68.850456 1000.921021,73.524055 1005.825012,75.734100 
	C1011.323853,78.212212 1016.466675,76.970291 1022.044556,71.301453 
M1003.142761,285.653961 
	C1010.411865,288.050354 1016.125916,286.436554 1019.827515,280.941589 
	C1023.135864,276.030487 1022.794006,269.640930 1018.896484,265.262543 
	C1015.267944,261.186340 1010.714600,259.638245 1005.416931,261.017090 
	C1000.093384,262.402649 996.804077,265.996582 995.896057,271.389832 
	C994.879578,277.427216 997.331238,282.053040 1003.142761,285.653961 
M77.198570,1089.261597 
	C86.758286,1086.861694 91.300682,1078.459839 87.360008,1070.466431 
	C84.476601,1064.617554 78.078606,1061.778198 71.854286,1063.585083 
	C65.715004,1065.367188 61.629704,1071.477417 62.406342,1077.715698 
	C63.265350,1084.615601 68.395439,1088.874512 77.198570,1089.261597 
M591.665955,1063.509033 
	C581.846924,1062.063721 573.946960,1069.293335 575.540955,1078.265869 
	C576.658569,1084.557373 582.097656,1089.207520 588.437500,1089.291626 
	C594.478455,1089.371948 599.812439,1085.271362 601.212708,1079.470703 
	C602.852966,1072.675293 599.654419,1066.938721 591.665955,1063.509033 
M1098.469360,874.354797 
	C1105.851685,875.458191 1111.206787,873.044678 1113.916992,867.392334 
	C1116.400024,862.214233 1115.146973,855.724060 1110.794556,851.933716 
	C1106.659424,848.332642 1101.867432,847.477722 1096.885254,849.673035 
	C1091.924194,851.859009 1089.216553,855.890991 1089.141602,861.412781 
	C1089.057617,867.591064 1092.094604,871.743042 1098.469360,874.354797 
z"/>
<path fill="#080808" opacity="1.000000" stroke="none" 
	d="
M389.409271,677.409851 
	C334.358917,732.459534 279.540710,787.241394 224.811844,842.112366 
	C222.128769,844.802429 219.463821,845.904724 215.663574,845.893311 
	C173.831207,845.767578 131.998306,845.814392 90.165550,845.814392 
	C88.368980,845.814392 86.572418,845.814453 84.102463,845.814453 
	C84.102463,843.424194 84.102470,841.491333 84.102470,839.558533 
	C84.102478,727.393433 84.087929,615.228333 84.166908,503.063232 
	C84.169495,499.389526 83.555588,497.271423 79.667366,495.607544 
	C67.264534,490.300049 60.674232,476.517548 63.586327,463.393707 
	C66.554977,450.015045 78.455208,440.323822 91.961037,440.286133 
	C105.492455,440.248352 117.463554,449.931885 120.390114,463.282684 
	C123.343239,476.754608 116.698044,490.430267 104.039040,495.783752 
	C100.562752,497.253845 99.850014,499.067902 99.852341,502.446136 
	C99.926292,609.777954 99.913124,717.109863 99.913147,824.441711 
	C99.913147,826.068237 99.913147,827.694702 99.913147,830.016235 
	C102.164360,830.016235 103.930901,830.016174 105.697441,830.016174 
	C140.196960,830.016174 174.696716,829.958557 209.195679,830.097717 
	C213.010544,830.113098 215.648575,828.968689 218.332153,826.280945 
	C304.767822,739.713745 391.281189,653.224060 477.783081,566.722900 
	C484.725372,559.780640 491.774323,552.940247 498.554901,545.843445 
	C500.957123,543.329224 503.447327,542.463379 506.869812,542.470764 
	C553.535645,542.571472 600.201782,542.500916 646.867554,542.609680 
	C650.620972,542.618469 652.617004,542.055969 653.840942,537.843689 
	C657.468201,525.360535 668.690491,517.632263 681.754150,517.771179 
	C694.265503,517.904236 705.397400,526.095886 708.855713,538.346619 
	C709.847595,541.860107 711.343323,542.656738 714.689880,542.612671 
	C726.851990,542.452576 739.018127,542.591553 751.182678,542.638367 
	C751.477051,542.639526 751.770447,542.882202 752.339966,543.134216 
	C752.339966,578.424316 752.339966,613.821899 752.339966,649.814453 
	C750.314392,649.814453 748.540894,649.814392 746.767395,649.814392 
	C714.434509,649.814392 682.101501,649.849731 649.768921,649.758240 
	C646.637390,649.749268 644.778687,650.376099 643.215210,653.520142 
	C638.658997,662.682617 630.588745,667.316528 620.348511,669.055786 
	C620.348511,743.882996 620.348511,818.472595 620.348511,893.322876 
	C510.832733,893.322876 401.773407,893.322876 293.582031,893.322876 
	C372.178131,814.726868 451.112366,735.792786 529.949829,656.955444 
	C529.949829,705.287598 529.949829,754.458496 529.949829,803.653564 
	C541.154053,806.696106 549.038574,812.795532 552.569153,823.554504 
	C557.394104,838.257507 549.946411,854.035339 535.650208,859.691467 
	C521.573303,865.260925 505.442383,858.965332 498.784180,845.303406 
	C492.138397,831.667114 497.051239,815.117493 510.423920,807.619385 
	C513.611755,805.831970 514.369324,803.949646 514.359558,800.636292 
	C514.259460,766.637085 514.298218,732.637390 514.298218,698.637878 
	C514.298218,697.182373 514.298218,695.726807 514.298218,694.988647 
	C453.471100,755.523010 392.510529,816.190186 331.400848,877.005737 
	C421.958984,877.005737 512.756165,877.005737 604.298218,877.005737 
	C604.298218,875.601562 604.298218,873.843811 604.298218,872.086121 
	C604.298218,804.920349 604.291382,737.754639 604.321594,670.588867 
	C604.322937,667.691956 604.112427,665.511292 601.150513,663.538635 
	C590.652039,656.546936 586.202087,643.690125 589.617310,631.938965 
	C593.133850,619.839050 603.737427,611.514282 616.505798,610.829041 
	C628.513489,610.184631 640.454468,617.665771 644.657043,629.343384 
	C646.111023,633.383606 648.044739,634.113281 651.835327,634.092529 
	C678.167542,633.947937 704.500854,634.016174 730.833862,634.016174 
	C732.623535,634.016174 734.413147,634.016235 736.528687,634.016235 
	C736.528687,608.768921 736.528687,584.033264 736.528687,558.619934 
	C727.366272,558.619934 718.268677,558.547791 709.176270,558.732910 
	C708.279297,558.751099 707.214539,560.215759 706.564209,561.225769 
	C693.815308,581.025879 668.604553,581.001587 655.700256,561.255310 
	C654.839050,559.937439 652.700195,558.699829 651.151917,558.695312 
	C604.652893,558.560303 558.153381,558.551575 511.654541,558.703186 
	C509.684296,558.709595 507.271179,559.986023 505.817841,561.429443 
	C467.037903,599.945435 428.356995,638.561096 389.409271,677.409851 
M105.064003,471.188171 
	C105.016296,464.028503 102.222244,459.293579 96.795418,457.175812 
	C91.714355,455.193024 85.798409,456.645874 82.219864,460.755219 
	C78.734016,464.758118 77.919594,470.556122 80.187393,475.224854 
	C82.599411,480.190460 87.839088,483.264984 93.232109,482.614838 
	C99.572441,481.850494 103.440575,478.192291 105.064003,471.188171 
M523.079895,819.589233 
	C517.453979,820.600037 513.631104,823.806274 512.243164,829.334595 
	C511.028046,834.174683 512.230164,838.605530 515.950562,842.137756 
	C520.241760,846.211914 526.594116,846.903442 531.670288,843.903992 
	C536.739014,840.908936 539.217957,834.921997 537.725159,829.281128 
	C536.075195,823.046082 531.340942,819.713928 523.079895,819.589233 
M605.779114,634.467102 
	C602.098572,644.630737 609.001221,654.257690 619.102661,653.049377 
	C625.326111,652.304993 630.064636,647.539490 630.801331,641.284241 
	C631.492981,635.411377 627.906982,629.667725 622.240295,627.572144 
	C616.036011,625.277771 610.535339,627.399963 605.779114,634.467102 
M670.964600,538.557373 
	C663.854675,547.943970 670.689758,559.480896 680.426025,560.018250 
	C686.428223,560.349548 692.006775,556.521851 693.837646,550.890625 
	C695.584839,545.516663 693.399719,539.238831 688.634399,535.941772 
	C683.267029,532.228149 677.246704,532.937134 670.964600,538.557373 
z"/>
<path fill="#070707" opacity="1.000000" stroke="none" 
	d="
M435.000000,941.059387 
	C377.837585,941.059448 321.175171,941.086609 264.512878,940.999023 
	C260.703735,940.993103 258.497955,941.556335 256.649231,945.681458 
	C251.692139,956.742676 242.435272,962.361877 230.360474,962.222168 
	C218.496689,962.085022 209.622986,956.287048 204.637573,945.485229 
	C203.103256,942.160889 201.436905,941.241089 197.997452,941.254944 
	C167.166946,941.378967 136.335724,941.327271 105.504707,941.327271 
	C103.858215,941.327271 102.211723,941.327271 100.239883,941.327271 
	C100.239883,963.457886 100.239883,985.184570 100.239883,1007.541016 
	C102.165497,1007.541016 103.939651,1007.540955 105.713806,1007.540955 
	C236.537308,1007.540955 367.360809,1007.526733 498.184235,1007.615234 
	C501.830597,1007.617676 504.285675,1006.514587 506.851776,1003.921753 
	C532.171814,978.336548 557.605469,952.863159 583.172241,927.524780 
	C584.669617,926.040894 587.588440,925.381165 589.850342,925.370911 
	C620.347412,925.232849 650.845337,925.278381 681.343018,925.278381 
	C748.171326,925.278381 814.999695,925.238770 881.827759,925.373779 
	C885.972900,925.382141 888.213562,924.513916 890.080933,920.433044 
	C895.749573,908.045105 909.322083,901.825134 922.543701,904.875793 
	C935.591675,907.886475 945.071228,919.799072 945.064880,933.177185 
	C945.058472,946.777466 935.341858,958.859131 922.145020,961.675781 
	C908.895569,964.503723 895.335449,958.043030 889.874451,945.638977 
	C888.221985,941.885498 886.331848,940.973083 882.513428,940.977295 
	C787.354004,941.081848 692.194458,941.080505 597.035034,940.979309 
	C593.374207,940.975403 590.874878,942.085327 588.331055,944.646790 
	C563.434937,969.715149 538.385437,994.631287 513.483276,1019.693604 
	C510.956818,1022.236328 508.487244,1023.413696 504.801575,1023.411011 
	C366.478699,1023.311951 228.155792,1023.327332 89.832863,1023.327271 
	C88.042694,1023.327271 86.252533,1023.327271 84.348091,1023.327271 
	C84.348091,990.445251 84.348091,958.175842 84.348091,925.278320 
	C86.364441,925.278320 88.143883,925.278381 89.923332,925.278381 
	C125.920624,925.278381 161.918045,925.234375 197.914978,925.349548 
	C201.339828,925.360535 203.053955,924.495117 204.561035,921.140869 
	C209.541397,910.056824 218.584061,904.263733 230.644745,904.231018 
	C242.936127,904.197693 252.044495,910.123230 257.026428,921.440857 
	C258.462646,924.703491 260.204468,925.340088 263.377899,925.336243 
	C327.372986,925.258362 391.368256,925.250671 455.363281,925.356262 
	C458.703156,925.361816 460.222473,924.366516 461.611694,921.277222 
	C467.446472,908.301331 481.022736,901.711792 494.571411,904.860901 
	C507.614777,907.892639 517.042847,919.755005 517.082397,933.184204 
	C517.121643,946.496094 507.563995,958.576416 494.624634,961.569519 
	C481.074158,964.704041 467.338287,958.097290 461.634888,945.173645 
	C460.142731,941.792419 458.407990,940.857788 454.989014,940.987854 
	C448.501160,941.234802 441.997253,941.059387 435.000000,941.059387 
M495.958588,943.631226 
	C502.358856,937.218933 502.822571,929.415710 497.136017,923.817444 
	C491.857910,918.621277 483.466309,918.799988 478.332550,924.217957 
	C473.914032,928.880981 473.534912,936.072205 477.438751,941.169189 
	C481.646088,946.662476 488.187561,947.724670 495.958588,943.631226 
M243.834671,934.213501 
	C243.257217,923.144836 233.719177,916.833618 224.713058,921.560974 
	C219.282562,924.411377 216.533691,930.355713 217.934708,936.218872 
	C219.327133,942.046143 224.571442,946.223267 230.586243,946.295959 
	C237.025391,946.373779 241.805374,942.267212 243.834671,934.213501 
M908.805237,922.126160 
	C902.444702,926.093506 902.615662,932.429443 904.203003,938.527466 
	C905.450623,943.320801 909.742493,945.811584 914.785217,946.271912 
	C920.332886,946.778381 925.485046,943.789124 927.790588,938.908020 
	C930.138184,933.937805 929.208374,928.085144 925.442017,924.126099 
	C921.371582,919.847168 916.009521,919.043579 908.805237,922.126160 
z"/>
<path fill="#070707" opacity="1.000000" stroke="none" 
	d="
M434.133972,437.133881 
	C442.790619,428.560822 451.102448,420.137726 459.689087,412.004761 
	C461.281708,410.496307 463.981415,409.389832 466.171143,409.388153 
	C623.312561,409.268036 780.454102,409.278259 937.595642,409.287506 
	C938.897522,409.287567 940.199341,409.419159 942.140747,409.523834 
	C942.140747,411.514893 942.140747,413.279938 942.140747,415.044983 
	C942.140747,438.374573 942.182800,461.704346 942.090393,485.033569 
	C942.078125,488.134247 942.554382,489.968140 945.927734,491.389252 
	C959.865051,497.260590 966.517578,512.840820 961.643188,527.122070 
	C956.860107,541.135681 942.260315,549.429688 927.814575,545.916870 
	C924.206421,545.039490 922.113892,545.834595 919.606995,548.359863 
	C885.464478,582.753052 851.232666,617.057739 816.931763,651.292908 
	C814.617126,653.603149 814.031433,655.302673 815.382263,658.530029 
	C820.695312,671.223694 816.041016,685.686096 804.619141,693.305725 
	C793.417664,700.778320 778.449951,699.510864 768.624878,690.257751 
	C758.547363,680.766907 756.463379,665.911743 763.557434,654.135925 
	C770.682434,642.308838 784.763672,637.087158 797.783813,641.707520 
	C800.692444,642.739624 802.587097,643.096985 805.140930,640.525940 
	C839.413147,606.021484 873.838806,571.669556 908.221191,537.274475 
	C908.916321,536.579041 909.549133,535.821289 909.611938,535.752136 
	C908.003174,529.755920 905.735046,524.447327 905.286133,518.989075 
	C904.278931,506.744446 911.232300,496.092285 922.561218,491.208344 
	C924.707764,490.282959 926.190491,489.584412 926.171021,486.745636 
	C926.035034,466.916595 926.086975,447.086304 926.058044,427.256439 
	C926.057373,426.790955 925.814514,426.325806 925.535706,425.326965 
	C923.826477,425.326965 922.043213,425.326996 920.259949,425.326996 
	C771.450439,425.326996 622.640869,425.340210 473.831390,425.252228 
	C470.028229,425.249969 467.356293,426.342896 464.667145,429.041962 
	C422.325653,471.539368 379.881866,513.934875 337.461578,556.353760 
	C326.866425,566.948547 316.322906,577.595947 305.632660,588.093872 
	C303.469940,590.217773 302.922852,591.826294 304.102905,594.920044 
	C308.512543,606.481018 306.151764,617.088806 297.444458,625.713257 
	C288.877502,634.198730 278.384644,636.367920 267.012726,632.125305 
	C264.023438,631.010071 262.360931,631.333496 260.161865,633.549011 
	C237.857758,656.020325 215.466293,678.405457 193.007965,700.722717 
	C190.870636,702.846619 190.233002,704.549561 191.193619,707.623108 
	C195.397110,721.072266 189.479401,735.146606 177.243637,741.705688 
	C165.051056,748.241455 150.056473,745.252808 141.024994,734.486511 
	C132.416260,724.224182 132.149734,709.087830 140.389694,698.401794 
	C148.942581,687.309875 163.530914,683.869324 176.308502,689.931763 
	C177.341827,690.421997 178.371017,690.921082 179.522339,691.473816 
	C180.586868,690.505432 181.598389,689.658142 182.528183,688.729004 
	C204.570786,666.702515 226.582504,644.644958 248.675644,622.669250 
	C250.772385,620.583618 251.572006,619.055603 250.263046,615.881836 
	C245.546875,604.446716 247.589844,593.798096 256.188904,584.986938 
	C264.912415,576.048279 275.682465,573.633057 287.394104,578.109558 
	C290.929688,579.460876 292.677460,578.683289 295.040283,576.314697 
	C341.279510,529.962524 387.588928,483.680359 434.133972,437.133881 
M151.057785,711.774719 
	C149.514420,718.325134 151.129807,723.383606 155.850327,726.782288 
	C160.072601,729.822205 165.958984,730.078003 170.389267,727.277161 
	C175.230942,724.216370 177.150421,719.685608 176.491806,714.088257 
	C175.838943,708.539917 171.444565,704.095886 165.819427,703.072571 
	C159.797379,701.977173 155.002151,704.605286 151.057785,711.774719 
M796.300598,659.075867 
	C793.108704,658.055847 789.874512,656.078735 786.733826,656.217590 
	C780.452881,656.495300 775.839783,661.899963 775.340820,668.116699 
	C774.870056,673.981995 778.739319,679.736145 784.394226,681.580566 
	C790.118225,683.447571 796.475830,681.171814 799.660461,676.115967 
	C803.139526,670.592651 802.186157,665.028748 796.300598,659.075867 
M266.457947,612.877502 
	C271.550842,618.241577 277.385864,619.637207 283.022858,616.839539 
	C288.059723,614.339661 291.012787,608.702515 290.064362,603.149658 
	C289.138000,597.725891 286.035736,594.141418 280.703064,592.583618 
	C275.528168,591.071838 270.089844,592.677307 266.796600,596.889648 
	C262.972656,601.780884 262.949860,606.960083 266.457947,612.877502 
M935.286499,504.590698 
	C926.436340,504.950348 920.667786,510.507446 921.033386,518.321289 
	C921.370789,525.532776 927.804199,531.241333 935.081848,530.787048 
	C941.346191,530.396118 946.584473,525.276062 947.179382,518.962585 
	C947.825256,512.108643 943.789734,506.891815 935.286499,504.590698 
z"/>
<path fill="#070707" opacity="1.000000" stroke="none" 
	d="
M624.053101,330.015076 
	C608.541748,346.862335 584.648254,343.012115 574.857361,322.537872 
	C574.209167,321.182434 572.053162,319.709503 570.592712,319.703522 
	C532.764648,319.548309 494.935730,319.545105 457.107574,319.686523 
	C455.231476,319.693512 452.906677,320.786407 451.553162,322.137451 
	C372.529144,401.014038 293.593689,479.979370 214.623383,558.909790 
	C205.807343,567.721436 196.837326,576.379028 187.926666,585.119873 
	C193.543900,595.444031 194.285568,605.329773 188.881958,615.261841 
	C181.678024,628.503235 165.107544,633.851257 151.275787,627.453674 
	C137.530609,621.095947 130.912033,604.901489 136.313995,590.844849 
	C141.789825,576.596008 157.489426,568.645264 171.688324,573.413452 
	C175.362000,574.647095 177.291183,573.844360 179.804672,571.327332 
	C267.637482,483.372375 355.557343,395.504364 443.365509,307.524841 
	C446.349182,304.535339 449.275726,303.444763 453.409607,303.459961 
	C491.904358,303.601410 530.399963,303.505737 568.894958,303.609497 
	C572.291138,303.618652 574.040710,302.816376 575.569946,299.421906 
	C580.644592,288.157928 589.815857,282.376556 602.126221,282.509460 
	C614.239441,282.640228 623.128784,288.549957 628.018372,299.670227 
	C629.433777,302.889496 631.121155,303.610565 634.341003,303.607880 
	C729.829224,303.528442 825.317505,303.544586 920.805786,303.534668 
	C922.420898,303.534485 924.036072,303.399139 926.107361,303.306458 
	C926.107361,301.337921 926.107361,299.713379 926.107361,298.088837 
	C926.107361,230.930420 926.083130,163.771973 926.177429,96.613693 
	C926.182251,93.185173 925.321167,91.444016 921.971375,89.944435 
	C909.203491,84.228844 902.632812,70.621780 905.727295,57.364353 
	C908.862976,43.930840 920.690125,34.561352 934.364990,34.677692 
	C948.076843,34.794350 959.672302,44.297138 962.607422,57.823071 
	C965.452393,70.934143 958.882202,84.331665 946.296692,89.908638 
	C942.649658,91.524750 942.065918,93.579933 942.070374,97.091507 
	C942.161133,169.249191 942.138611,241.407013 942.138611,313.564819 
	C942.138611,315.374847 942.138550,317.184875 942.138550,319.580200 
	C939.790649,319.580200 937.834229,319.580231 935.877808,319.580231 
	C836.390015,319.580231 736.902222,319.606628 637.414490,319.502197 
	C632.445618,319.496979 628.300293,319.579468 626.977966,325.570984 
	C626.644470,327.082245 625.203064,328.348969 624.053101,330.015076 
M939.120483,75.979202 
	C944.838928,73.227798 947.695068,68.728500 947.157898,62.349247 
	C946.710510,57.036057 942.916382,52.514675 937.826782,51.155609 
	C932.312866,49.683220 927.589905,51.151318 923.892761,55.506973 
	C920.370789,59.656193 919.987671,65.755699 922.801453,70.459953 
	C926.001648,75.810326 931.048645,77.688667 939.120483,75.979202 
M172.875992,610.397034 
	C177.339462,604.501099 177.795227,598.518311 174.167007,593.450378 
	C170.901871,588.889587 164.847595,586.843445 159.559601,588.638672 
	C154.146622,590.476318 150.975098,594.371277 150.447144,599.991333 
	C149.937256,605.418884 152.267441,609.796997 157.033432,612.474487 
	C162.381897,615.479309 167.568359,614.762329 172.875992,610.397034 
M614.446106,314.648041 
	C615.810303,308.807251 613.866333,304.158539 609.110840,300.742401 
	C604.800537,297.646088 600.050964,297.468506 595.488586,300.007324 
	C590.779846,302.627594 588.326416,306.823151 588.615051,312.336487 
	C588.924866,318.256165 593.512024,323.294342 599.422302,324.356476 
	C605.857971,325.513031 611.024353,322.391815 614.446106,314.648041 
z"/>
<path fill="#070707" opacity="1.000000" stroke="none" 
	d="
M528.000000,258.057922 
	C495.839355,258.058044 464.178497,258.109497 432.518341,257.985046 
	C429.057556,257.971405 426.668396,259.040009 424.246796,261.465179 
	C345.948700,339.879150 267.599731,418.242432 189.159393,496.514069 
	C186.505569,499.162140 186.121307,501.144348 187.398788,504.622711 
	C192.106934,517.442139 186.705902,531.566650 174.781296,538.752747 
	C163.381851,545.622375 148.167862,543.506836 139.000366,533.777283 
	C129.689545,523.895691 128.312256,508.893646 135.697845,497.804779 
	C143.376648,486.275696 157.948349,481.397705 170.381149,486.830719 
	C174.287857,488.537903 176.171021,487.432098 178.745636,484.851440 
	C258.185333,405.225098 337.705566,325.679047 417.114441,246.022049 
	C420.088562,243.038605 423.011780,241.934341 427.156952,241.937881 
	C546.634155,242.040085 666.111450,242.004654 785.588684,242.086136 
	C789.756409,242.088974 792.127808,241.468277 794.077454,236.927032 
	C798.922363,225.642242 808.264771,219.737961 820.553589,219.892899 
	C833.059875,220.050583 842.147217,226.353592 846.874023,237.966721 
	C848.446777,241.830597 850.356812,242.690170 854.312988,241.575317 
	C854.393982,239.977097 854.546753,238.363083 854.547241,236.749039 
	C854.559998,190.091248 854.509460,143.433319 854.648926,96.775940 
	C854.660095,93.040993 853.509521,91.329575 850.112671,89.777596 
	C837.529968,84.028534 831.162415,70.424255 834.290222,56.961586 
	C837.305542,43.983620 849.231140,34.647858 862.753235,34.679821 
	C876.183105,34.711567 887.933655,44.122173 890.955078,57.265781 
	C894.028870,70.637001 887.490234,84.146912 874.769531,89.874458 
	C871.494263,91.349174 870.534241,93.133881 870.541626,96.602486 
	C870.651367,148.259094 870.617493,199.916016 870.617493,251.572861 
	C870.617493,253.535141 870.617493,255.497421 870.617493,258.059540 
	C863.826172,258.059540 857.539917,257.852356 851.284058,258.196930 
	C849.600525,258.289612 847.252075,259.666412 846.496704,261.122009 
	C840.904175,271.899475 832.211670,277.802979 820.110840,277.775391 
	C808.002197,277.747803 799.132690,271.855194 794.009216,260.880829 
	C792.691528,258.058411 790.855652,258.033142 788.457458,258.038483 
	C771.794067,258.075439 755.130554,258.057922 738.467041,258.057922 
	C668.478027,258.057922 598.489014,258.057922 528.000000,258.057922 
M860.095032,76.709061 
	C861.420959,76.751480 862.763184,76.947899 864.070129,76.810097 
	C870.265503,76.156845 875.048767,71.269432 875.746155,64.996658 
	C876.404297,59.076904 872.300415,52.952179 866.489258,51.181580 
	C860.528687,49.365456 854.063538,51.985394 851.073730,57.428558 
	C846.970093,64.899307 850.406921,72.880928 860.095032,76.709061 
M807.123108,249.399429 
	C808.677917,252.582291 809.588440,256.387024 811.928772,258.811798 
	C816.121887,263.156219 823.066772,263.020752 827.989441,259.468719 
	C832.779724,256.012238 834.640564,249.357330 832.351196,243.869843 
	C829.970947,238.164764 824.503418,235.059891 818.288208,235.883896 
	C812.075439,236.707550 807.903870,241.450958 807.123108,249.399429 
M148.358002,519.794556 
	C151.333984,524.890137 155.772186,527.328735 161.643021,526.715332 
	C166.705200,526.186523 170.213577,523.308838 172.167297,518.661804 
	C174.373138,513.415161 172.833481,507.323151 168.549652,503.723267 
	C164.037338,499.931366 157.695053,499.562866 152.798248,502.808044 
	C147.471710,506.338074 145.856979,511.867188 148.358002,519.794556 
z"/>
<path fill="#080808" opacity="1.000000" stroke="none" 
	d="
M1078.102905,211.999969 
	C1078.102905,173.341949 1078.057373,135.183807 1078.178101,97.026161 
	C1078.189331,93.472099 1077.495605,91.505730 1073.888672,89.902657 
	C1061.155273,84.243446 1054.589233,70.586899 1057.661133,57.325104 
	C1060.768555,43.910225 1072.597290,34.574890 1086.325317,34.703163 
	C1100.099609,34.831867 1111.659302,44.317551 1114.530762,57.848034 
	C1117.358154,71.170868 1110.518677,84.738579 1097.755981,90.165230 
	C1094.477417,91.559227 1093.850098,93.306282 1093.851562,96.495689 
	C1093.921143,252.793549 1093.926758,409.091461 1093.825684,565.389282 
	C1093.823242,569.106750 1094.887695,570.791687 1098.360107,572.312866 
	C1112.401855,578.464050 1118.801025,595.131714 1112.963013,609.304871 
	C1106.976929,623.837708 1090.464844,631.374207 1076.278931,625.519470 
	C1072.501343,623.960388 1070.731689,624.983826 1068.263794,627.456665 
	C1011.412170,684.423218 954.475464,741.304810 897.631897,798.279480 
	C894.973999,800.943604 892.359375,802.167297 888.514648,802.148865 
	C856.356018,801.994873 824.196106,802.109619 792.037231,801.988037 
	C788.754700,801.975586 787.122498,802.829712 785.728149,806.000549 
	C780.087280,818.828430 766.741882,825.507874 753.333801,822.660645 
	C740.055420,819.840942 730.340271,807.870972 730.299377,794.279785 
	C730.258240,780.629395 739.768921,768.719727 753.097839,765.730408 
	C766.606018,762.700928 780.143921,769.481384 785.861511,782.539551 
	C787.168335,785.524353 788.707703,786.350220 791.781982,786.339600 
	C822.274719,786.234802 852.768250,786.332275 883.260376,786.156677 
	C885.434692,786.144165 888.140808,784.975281 889.689819,783.431335 
	C945.747864,727.556702 1001.684143,671.559875 1057.712280,615.655029 
	C1059.948975,613.423218 1060.234985,611.748779 1059.039429,608.794312 
	C1053.342285,594.715088 1059.417725,578.968689 1073.266724,572.639465 
	C1077.375854,570.761536 1078.196777,568.525696 1078.192871,564.406555 
	C1078.081055,447.104431 1078.102905,329.802185 1078.102905,211.999969 
M1074.873047,605.372437 
	C1079.748413,611.280151 1085.601685,613.033813 1091.495483,610.352417 
	C1096.952148,607.869995 1100.093994,601.847046 1098.890381,595.982422 
	C1097.829590,590.814331 1094.715576,587.282898 1089.688354,585.824097 
	C1084.445435,584.302734 1079.796997,585.700134 1076.195435,589.875122 
	C1072.299927,594.391052 1071.966675,599.413452 1074.873047,605.372437 
M1093.159912,74.860779 
	C1100.902588,68.510300 1101.234253,58.585686 1093.884155,53.181927 
	C1088.692993,49.365444 1081.547241,49.840996 1076.921753,54.310886 
	C1072.422119,58.659374 1071.593994,65.553650 1074.942505,70.789795 
	C1078.712646,76.685265 1085.131470,78.311440 1093.159912,74.860779 
M764.225952,781.898315 
	C756.910828,780.029053 751.444824,781.888062 748.139832,787.369202 
	C745.171509,792.291992 745.640442,798.479797 749.417480,802.690613 
	C753.078796,806.772461 757.700928,808.314331 762.960571,806.789062 
	C767.114319,805.584534 770.774170,803.159180 771.201294,798.454712 
	C771.772217,792.165710 772.449829,785.525330 764.225952,781.898315 
z"/>
<path fill="#080808" opacity="1.000000" stroke="none" 
	d="
M84.100845,254.999969 
	C84.100838,200.838806 84.070084,147.177597 84.172386,93.516632 
	C84.178963,90.064003 83.285942,88.365868 79.910339,86.905739 
	C67.266090,81.436455 60.574615,67.694313 63.547066,54.365204 
	C66.494774,41.147026 78.638039,31.457851 92.147293,31.544931 
	C105.654495,31.631998 117.388809,41.050777 120.325073,54.162392 
	C123.358940,67.709816 116.929939,81.177025 104.310165,86.844391 
	C101.158447,88.259773 99.813812,89.643677 99.820396,93.316238 
	C99.947937,164.475372 99.914902,235.634796 99.914864,306.794159 
	C99.914864,308.224487 99.914864,309.654785 99.914864,312.479462 
	C102.253380,310.307343 103.672752,309.071320 105.000618,307.743713 
	C163.337143,249.419662 221.685684,191.107559 279.933685,132.695221 
	C282.750641,129.870316 285.502045,128.684708 289.496857,128.687836 
	C415.317230,128.786423 541.137634,128.768738 666.958069,128.768738 
	C668.916443,128.768738 670.874817,128.768738 673.292908,128.768738 
	C673.292908,116.783165 673.413574,105.319511 673.120239,93.866470 
	C673.088257,92.618362 670.867737,91.009506 669.325500,90.283646 
	C658.241089,85.066750 651.470154,74.144646 652.138428,62.176598 
	C652.804871,50.240868 660.887329,39.764610 672.256836,36.099617 
	C686.747925,31.428364 702.462952,38.708912 708.147644,52.727180 
	C713.913086,66.944481 708.020508,82.998909 694.136780,89.545761 
	C690.219910,91.392731 688.935791,93.373306 689.021973,97.682968 
	C689.325195,112.841278 689.119690,128.009811 689.090698,143.174423 
	C689.090088,143.486526 688.888733,143.798233 688.537170,144.816223 
	C686.678650,144.816223 684.574890,144.816223 682.471069,144.816223 
	C553.817627,144.816223 425.164124,144.838715 296.510803,144.720184 
	C292.128723,144.716156 289.139923,146.070786 286.102509,149.115143 
	C220.423462,214.944260 154.647797,280.677002 88.928696,346.466187 
	C87.687714,347.708496 86.904419,349.408020 85.907593,350.894226 
	C85.305336,350.492126 84.703087,350.089996 84.100838,349.687866 
	C84.100838,318.291901 84.100838,286.895935 84.100845,254.999969 
M83.399551,50.766762 
	C78.853096,54.972412 77.625244,60.085075 79.922440,65.741707 
	C81.974518,70.794731 86.019463,73.560379 91.520256,73.855225 
	C96.982788,74.148018 102.079285,70.798882 104.150505,65.751831 
	C106.303993,60.504349 104.859825,54.392277 100.602737,50.736797 
	C95.959167,46.749451 90.258041,46.587048 83.399551,50.766762 
M668.340210,66.757103 
	C668.851440,67.982521 669.231628,69.284637 669.896240,70.420326 
	C673.079041,75.858978 679.539185,78.241806 685.434814,76.236145 
	C691.381287,74.213181 694.948181,68.534019 694.266907,62.173603 
	C693.628784,56.216106 688.860107,51.437473 682.825867,50.708580 
	C676.623657,49.959396 670.681213,53.575710 668.824463,59.565876 
	C668.204102,61.567360 668.389221,63.818504 668.340210,66.757103 
z"/>
<path fill="#070707" opacity="1.000000" stroke="none" 
	d="
M591.000122,185.279205 
	C648.487610,185.279221 705.475098,185.279221 763.301086,185.279221 
	C763.301086,183.553726 763.301086,181.974609 763.301086,180.395477 
	C763.301086,152.399063 763.251892,124.402451 763.368408,96.406532 
	C763.381714,93.207306 762.682312,91.530548 759.464172,90.108322 
	C746.333740,84.305351 739.785156,70.898903 742.931519,57.270390 
	C746.017212,43.904736 757.803162,34.673508 771.652527,34.774990 
	C785.349548,34.875355 797.031616,44.484848 799.843201,57.964333 
	C802.611023,71.233551 795.765686,84.660233 782.889526,90.236641 
	C779.579834,91.670029 779.078003,93.527473 779.086304,96.639725 
	C779.173645,129.468613 779.140320,162.297821 779.140259,195.126938 
	C779.140259,196.941925 779.140259,198.756912 779.140259,201.326340 
	C776.718567,201.326340 774.634094,201.326340 772.549561,201.326340 
	C649.065430,201.326340 525.581238,201.346497 402.097168,201.239410 
	C397.926605,201.235794 394.994049,202.375214 392.055603,205.361862 
	C375.343231,222.348190 358.450684,239.157944 341.537384,255.945007 
	C339.449493,258.017273 338.562866,259.557312 339.914215,262.724518 
	C344.672180,273.876129 341.996490,286.197266 333.554749,294.519836 
	C325.031525,302.922760 313.039429,305.207367 301.704865,300.234619 
	C299.221680,299.145233 297.908447,299.580994 296.147461,301.346375 
	C261.311615,336.269348 226.437286,371.154022 191.497650,405.973083 
	C189.549133,407.914917 189.249847,409.388733 190.278778,411.987305 
	C195.583496,425.384552 191.146088,439.509583 179.503128,447.168243 
	C168.064880,454.692200 152.935272,453.233673 143.143982,443.663116 
	C133.347855,434.087921 131.542923,418.800812 138.864578,407.418030 
	C146.636429,395.335297 160.718231,390.668274 174.270798,396.002625 
	C176.897507,397.036530 178.337906,396.779877 180.286499,394.824646 
	C215.106613,359.886047 249.989273,325.009735 284.916809,290.178467 
	C286.809143,288.291321 287.259308,286.879883 286.201721,284.179291 
	C281.775543,272.876526 283.724701,262.453979 292.152679,253.707352 
	C300.702484,244.834274 311.237000,242.325623 322.822327,246.478195 
	C326.363922,247.747635 328.147308,246.983063 330.497742,244.613495 
	C349.040009,225.920181 367.732910,207.376266 386.259613,188.667679 
	C388.677429,186.226151 391.090271,185.204422 394.542847,185.209442 
	C459.861847,185.304413 525.180969,185.279297 591.000122,185.279205 
M175.334869,428.555115 
	C177.726166,421.612976 176.442505,416.177063 171.512405,412.368195 
	C167.237473,409.065552 161.081467,408.805908 156.499939,411.735046 
	C151.939545,414.650574 149.461365,419.947998 150.504333,425.043640 
	C151.643539,430.609528 154.983917,434.387146 160.567093,435.621033 
	C166.800232,436.998566 171.662491,434.682343 175.334869,428.555115 
M304.183960,283.369324 
	C305.433228,284.175415 306.604156,285.156525 307.945435,285.757111 
	C313.570068,288.275665 319.836609,286.634918 323.551453,281.790131 
	C327.188721,277.046539 327.194580,270.399170 323.565735,265.566284 
	C320.230408,261.124298 313.667572,259.360046 308.305298,261.463898 
	C299.539764,264.903015 297.476562,274.356232 304.183960,283.369324 
M759.885559,70.349335 
	C764.800903,76.909760 771.433228,78.735214 777.687744,75.249153 
	C783.456116,72.034035 785.923218,65.006409 783.444214,58.851757 
	C780.747498,52.156612 773.220581,48.879555 766.522949,51.484703 
	C759.264832,54.307869 756.537231,61.362991 759.885559,70.349335 
z"/>
<path fill="#090909" opacity="1.000000" stroke="none" 
	d="
M889.000122,1068.271973 
	C949.146545,1068.271973 1008.793091,1068.242676 1068.439331,1068.342529 
	C1072.129639,1068.348755 1074.254272,1067.666016 1075.967896,1063.880615 
	C1081.744873,1051.117554 1095.147461,1044.789185 1108.626221,1047.831909 
	C1121.625732,1050.766479 1131.122192,1062.695801 1131.141846,1076.115967 
	C1131.161743,1089.715942 1121.480591,1101.802856 1108.286987,1104.650391 
	C1094.858643,1107.548340 1081.384644,1100.965820 1075.753662,1088.243530 
	C1074.278320,1084.910278 1072.582397,1083.993286 1069.139038,1083.995850 
	C957.510254,1084.080200 845.881409,1084.085693 734.252686,1083.977417 
	C730.535278,1083.973755 728.775940,1085.039551 727.238403,1088.485107 
	C721.589355,1101.144409 707.945374,1107.668579 694.592285,1104.559204 
	C681.240845,1101.450195 672.005432,1089.648315 672.101318,1075.818115 
	C672.194519,1062.364624 681.646667,1050.710693 694.837524,1047.785767 
	C708.260803,1044.809326 721.801025,1051.396484 727.360657,1064.115845 
	C728.842468,1067.505859 730.626343,1068.346069 734.052612,1068.339600 
	C785.534973,1068.241943 837.017517,1068.271851 889.000122,1068.271973 
M689.790527,1069.537109 
	C686.945435,1076.137329 687.656372,1081.461670 691.937988,1085.617676 
	C696.006836,1089.567261 702.132751,1090.469482 707.209534,1087.867065 
	C712.064026,1085.378540 714.921570,1080.086548 714.172852,1074.585327 
	C713.431274,1069.136719 710.397522,1065.366455 705.131348,1063.736328 
	C698.987488,1061.834351 694.034485,1063.868408 689.790527,1069.537109 
M1089.542480,1072.406128 
	C1088.225952,1078.508301 1089.697754,1083.684570 1095.030029,1087.210571 
	C1099.598999,1090.231934 1104.444336,1090.165771 1109.094971,1087.250366 
	C1113.780884,1084.312622 1116.053711,1078.745972 1114.915771,1073.467773 
	C1113.725586,1067.946655 1109.128174,1063.777222 1103.520874,1063.133179 
	C1097.542603,1062.446655 1093.093872,1065.220825 1089.542480,1072.406128 
z"/>
<path fill="#080808" opacity="1.000000" stroke="none" 
	d="
M1099.185547,825.385193 
	C1082.700317,830.260681 1067.476074,823.281799 1061.827637,808.571106 
	C1056.258423,794.066589 1062.814453,778.556702 1077.696777,771.665833 
	C1080.470337,770.381531 1081.214233,768.806580 1081.197998,765.965210 
	C1081.094482,747.634949 1081.084717,729.303284 1081.206299,710.973267 
	C1081.225708,708.034058 1080.259888,706.678894 1077.529907,705.461792 
	C1064.122070,699.483887 1057.248901,685.350952 1060.805054,671.734680 
	C1064.410767,657.928650 1077.266235,648.880371 1091.633545,650.036011 
	C1105.687378,651.166504 1116.722656,662.359314 1118.093506,676.874084 
	C1119.168701,688.255066 1112.190918,700.437439 1101.253540,705.108032 
	C1097.634033,706.653687 1096.816650,708.570740 1096.851685,712.175171 
	C1097.024902,730.004456 1096.988403,747.836670 1096.875732,765.666931 
	C1096.856567,768.691162 1097.616211,770.432617 1100.603394,771.763428 
	C1112.322754,776.984375 1118.323608,786.430237 1117.995972,799.063293 
	C1117.673218,811.506165 1111.118530,820.327515 1099.185547,825.385193 
M1089.426758,665.864319 
	C1079.073364,666.612488 1073.048828,675.496521 1076.969849,684.233948 
	C1079.555542,689.995728 1085.705078,693.195618 1091.713867,691.905945 
	C1097.773682,690.605225 1102.197388,685.152466 1102.191040,678.991211 
	C1102.184082,672.202454 1097.937378,667.531860 1089.426758,665.864319 
M1102.192505,798.460022 
	C1101.493530,789.301331 1097.762451,786.273560 1087.275757,786.355408 
	C1080.915039,786.405029 1076.394775,790.660950 1075.952637,797.016357 
	C1075.453979,804.183472 1080.192627,810.186462 1087.153442,811.205750 
	C1094.501709,812.281799 1100.350586,807.647095 1102.192505,798.460022 
z"/>
<path fill="#F6F6F6" opacity="1.000000" stroke="none" 
	d="
M1000.485840,523.401245 
	C1006.927002,519.430603 1012.112610,519.423218 1016.904541,523.134521 
	C1021.131042,526.407898 1023.014771,531.895386 1021.624390,536.884094 
	C1020.072021,542.453918 1015.544067,546.198608 1009.773560,546.684631 
	C1004.630432,547.117859 999.524902,544.212891 997.124939,539.487976 
	C994.363220,534.050964 995.333679,529.051270 1000.485840,523.401245 
z"/>
<path fill="#F6F6F6" opacity="1.000000" stroke="none" 
	d="
M1021.822266,71.613037 
	C1016.466675,76.970291 1011.323853,78.212212 1005.825012,75.734100 
	C1000.921021,73.524055 998.013306,68.850456 998.123718,63.355888 
	C998.230591,58.042633 1001.520081,53.413208 1006.566406,51.474442 
	C1011.683411,49.508488 1017.524353,50.950096 1021.155518,55.075119 
	C1025.063965,59.514919 1025.366699,65.041298 1021.822266,71.613037 
z"/>
<path fill="#F7F7F7" opacity="1.000000" stroke="none" 
	d="
M1002.796997,285.483704 
	C997.331238,282.053040 994.879578,277.427216 995.896057,271.389832 
	C996.804077,265.996582 1000.093384,262.402649 1005.416931,261.017090 
	C1010.714600,259.638245 1015.267944,261.186340 1018.896484,265.262543 
	C1022.794006,269.640930 1023.135864,276.030487 1019.827515,280.941589 
	C1016.125916,286.436554 1010.411865,288.050354 1002.796997,285.483704 
z"/>
<path fill="#F6F6F6" opacity="1.000000" stroke="none" 
	d="
M76.773972,1089.276245 
	C68.395439,1088.874512 63.265350,1084.615601 62.406342,1077.715698 
	C61.629704,1071.477417 65.715004,1065.367188 71.854286,1063.585083 
	C78.078606,1061.778198 84.476601,1064.617554 87.360008,1070.466431 
	C91.300682,1078.459839 86.758286,1086.861694 76.773972,1089.276245 
z"/>
<path fill="#F6F6F6" opacity="1.000000" stroke="none" 
	d="
M592.048584,1063.615234 
	C599.654419,1066.938721 602.852966,1072.675293 601.212708,1079.470703 
	C599.812439,1085.271362 594.478455,1089.371948 588.437500,1089.291626 
	C582.097656,1089.207520 576.658569,1084.557373 575.540955,1078.265869 
	C573.946960,1069.293335 581.846924,1062.063721 592.048584,1063.615234 
z"/>
<path fill="#F6F6F6" opacity="1.000000" stroke="none" 
	d="
M1098.098633,874.224487 
	C1092.094604,871.743042 1089.057617,867.591064 1089.141602,861.412781 
	C1089.216553,855.890991 1091.924194,851.859009 1096.885254,849.673035 
	C1101.867432,847.477722 1106.659424,848.332642 1110.794556,851.933716 
	C1115.146973,855.724060 1116.400024,862.214233 1113.916992,867.392334 
	C1111.206787,873.044678 1105.851685,875.458191 1098.098633,874.224487 
z"/>
<path fill="#F5F5F5" opacity="1.000000" stroke="none" 
	d="
M104.999695,471.594421 
	C103.440575,478.192291 99.572441,481.850494 93.232109,482.614838 
	C87.839088,483.264984 82.599411,480.190460 80.187393,475.224854 
	C77.919594,470.556122 78.734016,464.758118 82.219864,460.755219 
	C85.798409,456.645874 91.714355,455.193024 96.795418,457.175812 
	C102.222244,459.293579 105.016296,464.028503 104.999695,471.594421 
z"/>
<path fill="#F6F6F6" opacity="1.000000" stroke="none" 
	d="
M523.461670,819.549927 
	C531.340942,819.713928 536.075195,823.046082 537.725159,829.281128 
	C539.217957,834.921997 536.739014,840.908936 531.670288,843.903992 
	C526.594116,846.903442 520.241760,846.211914 515.950562,842.137756 
	C512.230164,838.605530 511.028046,834.174683 512.243164,829.334595 
	C513.631104,823.806274 517.453979,820.600037 523.461670,819.549927 
z"/>
<path fill="#F6F6F6" opacity="1.000000" stroke="none" 
	d="
M605.945068,634.131104 
	C610.535339,627.399963 616.036011,625.277771 622.240295,627.572144 
	C627.906982,629.667725 631.492981,635.411377 630.801331,641.284241 
	C630.064636,647.539490 625.326111,652.304993 619.102661,653.049377 
	C609.001221,654.257690 602.098572,644.630737 605.945068,634.131104 
z"/>
<path fill="#F6F6F6" opacity="1.000000" stroke="none" 
	d="
M671.200562,538.262207 
	C677.246704,532.937134 683.267029,532.228149 688.634399,535.941772 
	C693.399719,539.238831 695.584839,545.516663 693.837646,550.890625 
	C692.006775,556.521851 686.428223,560.349548 680.426025,560.018250 
	C670.689758,559.480896 663.854675,547.943970 671.200562,538.262207 
z"/>
<path fill="#F6F6F6" opacity="1.000000" stroke="none" 
	d="
M495.643158,943.852600 
	C488.187561,947.724670 481.646088,946.662476 477.438751,941.169189 
	C473.534912,936.072205 473.914032,928.880981 478.332550,924.217957 
	C483.466309,918.799988 491.857910,918.621277 497.136017,923.817444 
	C502.822571,929.415710 502.358856,937.218933 495.643158,943.852600 
z"/>
<path fill="#F6F6F6" opacity="1.000000" stroke="none" 
	d="
M243.780670,934.610107 
	C241.805374,942.267212 237.025391,946.373779 230.586243,946.295959 
	C224.571442,946.223267 219.327133,942.046143 217.934708,936.218872 
	C216.533691,930.355713 219.282562,924.411377 224.713058,921.560974 
	C233.719177,916.833618 243.257217,923.144836 243.780670,934.610107 
z"/>
<path fill="#F6F6F6" opacity="1.000000" stroke="none" 
	d="
M909.139282,921.929443 
	C916.009521,919.043579 921.371582,919.847168 925.442017,924.126099 
	C929.208374,928.085144 930.138184,933.937805 927.790588,938.908020 
	C925.485046,943.789124 920.332886,946.778381 914.785217,946.271912 
	C909.742493,945.811584 905.450623,943.320801 904.203003,938.527466 
	C902.615662,932.429443 902.444702,926.093506 909.139282,921.929443 
z"/>
<path fill="#F5F5F5" opacity="1.000000" stroke="none" 
	d="
M151.170212,711.407349 
	C155.002151,704.605286 159.797379,701.977173 165.819427,703.072571 
	C171.444565,704.095886 175.838943,708.539917 176.491806,714.088257 
	C177.150421,719.685608 175.230942,724.216370 170.389267,727.277161 
	C165.958984,730.078003 160.072601,729.822205 155.850327,726.782288 
	C151.129807,723.383606 149.514420,718.325134 151.170212,711.407349 
z"/>
<path fill="#F5F5F5" opacity="1.000000" stroke="none" 
	d="
M796.565430,659.337402 
	C802.186157,665.028748 803.139526,670.592651 799.660461,676.115967 
	C796.475830,681.171814 790.118225,683.447571 784.394226,681.580566 
	C778.739319,679.736145 774.870056,673.981995 775.340820,668.116699 
	C775.839783,661.899963 780.452881,656.495300 786.733826,656.217590 
	C789.874512,656.078735 793.108704,658.055847 796.565430,659.337402 
z"/>
<path fill="#F7F7F7" opacity="1.000000" stroke="none" 
	d="
M266.240906,612.562378 
	C262.949860,606.960083 262.972656,601.780884 266.796600,596.889648 
	C270.089844,592.677307 275.528168,591.071838 280.703064,592.583618 
	C286.035736,594.141418 289.138000,597.725891 290.064362,603.149658 
	C291.012787,608.702515 288.059723,614.339661 283.022858,616.839539 
	C277.385864,619.637207 271.550842,618.241577 266.240906,612.562378 
z"/>
<path fill="#F7F7F7" opacity="1.000000" stroke="none" 
	d="
M935.709229,504.636108 
	C943.789734,506.891815 947.825256,512.108643 947.179382,518.962585 
	C946.584473,525.276062 941.346191,530.396118 935.081848,530.787048 
	C927.804199,531.241333 921.370789,525.532776 921.033386,518.321289 
	C920.667786,510.507446 926.436340,504.950348 935.709229,504.636108 
z"/>
<path fill="#F6F6F6" opacity="1.000000" stroke="none" 
	d="
M938.752319,76.119308 
	C931.048645,77.688667 926.001648,75.810326 922.801453,70.459953 
	C919.987671,65.755699 920.370789,59.656193 923.892761,55.506973 
	C927.589905,51.151318 932.312866,49.683220 937.826782,51.155609 
	C942.916382,52.514675 946.710510,57.036057 947.157898,62.349247 
	C947.695068,68.728500 944.838928,73.227798 938.752319,76.119308 
z"/>
<path fill="#F6F6F6" opacity="1.000000" stroke="none" 
	d="
M172.601929,610.655762 
	C167.568359,614.762329 162.381897,615.479309 157.033432,612.474487 
	C152.267441,609.796997 149.937256,605.418884 150.447144,599.991333 
	C150.975098,594.371277 154.146622,590.476318 159.559601,588.638672 
	C164.847595,586.843445 170.901871,588.889587 174.167007,593.450378 
	C177.795227,598.518311 177.339462,604.501099 172.601929,610.655762 
z"/>
<path fill="#F6F6F6" opacity="1.000000" stroke="none" 
	d="
M614.339172,315.028625 
	C611.024353,322.391815 605.857971,325.513031 599.422302,324.356476 
	C593.512024,323.294342 588.924866,318.256165 588.615051,312.336487 
	C588.326416,306.823151 590.779846,302.627594 595.488586,300.007324 
	C600.050964,297.468506 604.800537,297.646088 609.110840,300.742401 
	C613.866333,304.158539 615.810303,308.807251 614.339172,315.028625 
z"/>
<path fill="#F6F6F6" opacity="1.000000" stroke="none" 
	d="
M859.702148,76.631683 
	C850.406921,72.880928 846.970093,64.899307 851.073730,57.428558 
	C854.063538,51.985394 860.528687,49.365456 866.489258,51.181580 
	C872.300415,52.952179 876.404297,59.076904 875.746155,64.996658 
	C875.048767,71.269432 870.265503,76.156845 864.070129,76.810097 
	C862.763184,76.947899 861.420959,76.751480 859.702148,76.631683 
z"/>
<path fill="#F7F7F7" opacity="1.000000" stroke="none" 
	d="
M807.122070,248.990570 
	C807.903870,241.450958 812.075439,236.707550 818.288208,235.883896 
	C824.503418,235.059891 829.970947,238.164764 832.351196,243.869843 
	C834.640564,249.357330 832.779724,256.012238 827.989441,259.468719 
	C823.066772,263.020752 816.121887,263.156219 811.928772,258.811798 
	C809.588440,256.387024 808.677917,252.582291 807.122070,248.990570 
z"/>
<path fill="#F6F6F6" opacity="1.000000" stroke="none" 
	d="
M148.204193,519.430054 
	C145.856979,511.867188 147.471710,506.338074 152.798248,502.808044 
	C157.695053,499.562866 164.037338,499.931366 168.549652,503.723267 
	C172.833481,507.323151 174.373138,513.415161 172.167297,518.661804 
	C170.213577,523.308838 166.705200,526.186523 161.643021,526.715332 
	C155.772186,527.328735 151.333984,524.890137 148.204193,519.430054 
z"/>
<path fill="#F6F6F6" opacity="1.000000" stroke="none" 
	d="
M1074.668457,605.046753 
	C1071.966675,599.413452 1072.299927,594.391052 1076.195435,589.875122 
	C1079.796997,585.700134 1084.445435,584.302734 1089.688354,585.824097 
	C1094.715576,587.282898 1097.829590,590.814331 1098.890381,595.982422 
	C1100.093994,601.847046 1096.952148,607.869995 1091.495483,610.352417 
	C1085.601685,613.033813 1079.748413,611.280151 1074.668457,605.046753 
z"/>
<path fill="#F7F7F7" opacity="1.000000" stroke="none" 
	d="
M1092.823730,75.047714 
	C1085.131470,78.311440 1078.712646,76.685265 1074.942505,70.789795 
	C1071.593994,65.553650 1072.422119,58.659374 1076.921753,54.310886 
	C1081.547241,49.840996 1088.692993,49.365444 1093.884155,53.181927 
	C1101.234253,58.585686 1100.902588,68.510300 1092.823730,75.047714 
z"/>
<path fill="#F7F7F7" opacity="1.000000" stroke="none" 
	d="
M764.588196,782.053223 
	C772.449829,785.525330 771.772217,792.165710 771.201294,798.454712 
	C770.774170,803.159180 767.114319,805.584534 762.960571,806.789062 
	C757.700928,808.314331 753.078796,806.772461 749.417480,802.690613 
	C745.640442,798.479797 745.171509,792.291992 748.139832,787.369202 
	C751.444824,781.888062 756.910828,780.029053 764.588196,782.053223 
z"/>
<path fill="#F6F6F6" opacity="1.000000" stroke="none" 
	d="
M83.691612,50.515068 
	C90.258041,46.587048 95.959167,46.749451 100.602737,50.736797 
	C104.859825,54.392277 106.303993,60.504349 104.150505,65.751831 
	C102.079285,70.798882 96.982788,74.148018 91.520256,73.855225 
	C86.019463,73.560379 81.974518,70.794731 79.922440,65.741707 
	C77.625244,60.085075 78.853096,54.972412 83.691612,50.515068 
z"/>
<path fill="#F7F7F7" opacity="1.000000" stroke="none" 
	d="
M668.273193,66.356308 
	C668.389221,63.818504 668.204102,61.567360 668.824463,59.565876 
	C670.681213,53.575710 676.623657,49.959396 682.825867,50.708580 
	C688.860107,51.437473 693.628784,56.216106 694.266907,62.173603 
	C694.948181,68.534019 691.381287,74.213181 685.434814,76.236145 
	C679.539185,78.241806 673.079041,75.858978 669.896240,70.420326 
	C669.231628,69.284637 668.851440,67.982521 668.273193,66.356308 
z"/>
<path fill="#F6F6F6" opacity="1.000000" stroke="none" 
	d="
M175.176727,428.899475 
	C171.662491,434.682343 166.800232,436.998566 160.567093,435.621033 
	C154.983917,434.387146 151.643539,430.609528 150.504333,425.043640 
	C149.461365,419.947998 151.939545,414.650574 156.499939,411.735046 
	C161.081467,408.805908 167.237473,409.065552 171.512405,412.368195 
	C176.442505,416.177063 177.726166,421.612976 175.176727,428.899475 
z"/>
<path fill="#F6F6F6" opacity="1.000000" stroke="none" 
	d="
M303.910004,283.113525 
	C297.476562,274.356232 299.539764,264.903015 308.305298,261.463898 
	C313.667572,259.360046 320.230408,261.124298 323.565735,265.566284 
	C327.194580,270.399170 327.188721,277.046539 323.551453,281.790131 
	C319.836609,286.634918 313.570068,288.275665 307.945435,285.757111 
	C306.604156,285.156525 305.433228,284.175415 303.910004,283.113525 
z"/>
<path fill="#F6F6F6" opacity="1.000000" stroke="none" 
	d="
M759.683350,70.024231 
	C756.537231,61.362991 759.264832,54.307869 766.522949,51.484703 
	C773.220581,48.879555 780.747498,52.156612 783.444214,58.851757 
	C785.923218,65.006409 783.456116,72.034035 777.687744,75.249153 
	C771.433228,78.735214 764.800903,76.909760 759.683350,70.024231 
z"/>
<path fill="#F7F7F7" opacity="1.000000" stroke="none" 
	d="
M689.991699,1069.212280 
	C694.034485,1063.868408 698.987488,1061.834351 705.131348,1063.736328 
	C710.397522,1065.366455 713.431274,1069.136719 714.172852,1074.585327 
	C714.921570,1080.086548 712.064026,1085.378540 707.209534,1087.867065 
	C702.132751,1090.469482 696.006836,1089.567261 691.937988,1085.617676 
	C687.656372,1081.461670 686.945435,1076.137329 689.991699,1069.212280 
z"/>
<path fill="#F6F6F6" opacity="1.000000" stroke="none" 
	d="
M1089.689209,1072.036499 
	C1093.093872,1065.220825 1097.542603,1062.446655 1103.520874,1063.133179 
	C1109.128174,1063.777222 1113.725586,1067.946655 1114.915771,1073.467773 
	C1116.053711,1078.745972 1113.780884,1084.312622 1109.094971,1087.250366 
	C1104.444336,1090.165771 1099.598999,1090.231934 1095.030029,1087.210571 
	C1089.697754,1083.684570 1088.225952,1078.508301 1089.689209,1072.036499 
z"/>
<path fill="#F7F7F7" opacity="1.000000" stroke="none" 
	d="
M1089.844727,665.868408 
	C1097.937378,667.531860 1102.184082,672.202454 1102.191040,678.991211 
	C1102.197388,685.152466 1097.773682,690.605225 1091.713867,691.905945 
	C1085.705078,693.195618 1079.555542,689.995728 1076.969849,684.233948 
	C1073.048828,675.496521 1079.073364,666.612488 1089.844727,665.868408 
z"/>
<path fill="#F5F5F5" opacity="1.000000" stroke="none" 
	d="
M1102.184692,798.880493 
	C1100.350586,807.647095 1094.501709,812.281799 1087.153442,811.205750 
	C1080.192627,810.186462 1075.453979,804.183472 1075.952637,797.016357 
	C1076.394775,790.660950 1080.915039,786.405029 1087.275757,786.355408 
	C1097.762451,786.273560 1101.493530,789.301331 1102.184692,798.880493 
z"/>
</svg>